<svg xmlns="http://www.w3.org/2000/svg" width="86" height="86" fill="none" viewBox="0 0 86 86"><path stroke="#0D0B0B" stroke-width="3" d="M1.62 79.65V6.67l5.143-5.14h73.024l4.139 4.137V79.65l-4.14 4.137H5.76l-4.14-4.137Z"/><mask id="mask0_123_1447" width="57" height="56" x="12" y="13" maskUnits="userSpaceOnUse" style="mask-type:alpha"><mask id="path-2-inside-1_123_1447" fill="#fff"><path fill-rule="evenodd" d="M68.295 13.034H12.413v55.258h55.882v-4.243c-.414.152-.86.236-1.326.236H50.462c-2.11 0-3.843-1.716-3.843-3.806V55.17c-.054-2.09 1.678-3.806 3.843-3.806h16.507c.466 0 .912.083 1.326.235V13.034Z" clip-rule="evenodd"/></mask><path fill="#C4C4C4" fill-rule="evenodd" d="M68.295 13.034H12.413v55.258h55.882v-4.243c-.414.152-.86.236-1.326.236H50.462c-2.11 0-3.843-1.716-3.843-3.806V55.17c-.054-2.09 1.678-3.806 3.843-3.806h16.507c.466 0 .912.083 1.326.235V13.034Z" clip-rule="evenodd"/><path fill="#4C3211" d="M12.413 13.034v-1.081H11.33v1.081h1.082Zm55.882 0h1.082v-1.081h-1.082v1.081ZM12.413 68.292H11.33v1.081h1.082v-1.081Zm55.882 0v1.081h1.082v-1.081h-1.082Zm0-4.243h1.082V62.5l-1.455.535.373 1.015ZM46.62 55.171h1.082v-.028l-1.082.028Zm21.676-3.57-.373 1.015 1.455.535v-1.55h-1.082ZM12.413 14.115h55.882v-2.163H12.413v2.163Zm1.082 54.176V13.034H11.33v55.258h2.164Zm54.8-1.082H12.413v2.163h55.882V67.21Zm-1.082-3.16v4.242h2.164v-4.243h-2.163Zm.709-1.016c-.297.11-.617.169-.953.169v2.163c.596 0 1.169-.106 1.7-.302l-.747-2.03Zm-.953.169H50.462v2.163h16.507v-2.163Zm-16.507 0c-1.523 0-2.761-1.24-2.761-2.725h-2.163c0 2.698 2.226 4.888 4.924 4.888v-2.163ZM47.7 60.478v-5.307h-2.163v5.307H47.7Zm0-5.335c-.038-1.446 1.167-2.696 2.76-2.696v-2.164c-2.735 0-4.994 2.181-4.923 4.916l2.163-.056Zm2.76-2.696H66.97v-2.164H50.462v2.164Zm16.508 0c.336 0 .656.06.953.169l.747-2.03a4.914 4.914 0 0 0-1.7-.303v2.164Zm.245-39.413V51.6h2.163V13.034h-2.163Z" mask="url(#path-2-inside-1_123_1447)"/></mask><g mask="url(#mask0_123_1447)"><path stroke="#fff" stroke-linecap="round" stroke-linejoin="round" stroke-miterlimit="10" d="M59.825 62.55c-4.763 1.02-9.092-1.286-13.476-2.412-4.438-1.233-9.201-1.983-13.802-.911-2.11.536-4.33 1.019-6.549 1.019-11.798.053-12.286-24.446-5.79-30.772 3.463-3.753 8.605-2.198 13.314-.75 4.708 1.447 9.471 1.018 13.693-1.609 3.41-1.769 9.904-5.093 14.938-2.52 3.68 1.877 4.6 6.487 4.708 11.902.108 5.2 0 10.453 0 15.654 0 4.45-2.273 9.381-7.036 10.4Z"/><path stroke="#fff" stroke-linecap="round" stroke-linejoin="round" stroke-miterlimit="10" stroke-width=".5" d="M19.993 57.35c2.544 3.217 7.469.858 15.641.537 8.877-.322 16.508 4.181 21.433 1.823 4.925-2.413 4.925-8.095 5.033-17.102.109-9.006-.595-13.455-3.95-15.814-4.926-3.485-12.774 2.037-17.428 3.377-9.255 3.324-14.83-5.522-21-.16 0 0-3.68 3.537-3.68 13.562 0 10.025 3.95 13.778 3.95 13.778Z"/><path stroke="#fff" stroke-miterlimit="10" stroke-width=".721" d="M32.17 52.526c6.17-.375 12.666 2.037 15.913.643 3.301-1.447 4.005-4.932 4.005-10.239 0-3.913-1.461-6.594-3.734-7.988-3.356-2.09-9.58-.375-13.206-.268-6.55.215-8.552-1.5-12.72.804-1.298.697-4.004 2.466-3.68 8.363.65 9.543 8.119 9.007 13.423 8.685Z"/><path stroke="#fff" stroke-miterlimit="10" stroke-width=".721" d="M33.9 54.188c6.983-.161 13.153 2.841 16.941 1.286 4.33-1.769 4.925-5.79 4.925-12.33 0-6.593-1.623-9.488-4.925-11.311-4.005-2.252-8.714.322-12.881.75-6.982.751-11.961-2.84-16.508 0-1.407.858-4.275 3.7-4.167 11.098.054 4.878 2.003 8.202 4.005 9.703 3.248 2.358 8.335.911 12.61.804Z"/><path fill="#fff" d="M28.813 38.748s1.19.108 3.139.161c1.948.054 4.438-.053 4.438-.053.054 0 .054.053 0 .053 0 0-4.6 1.77-4.655 1.77l-2.922-1.93c-.054.053-.054 0 0 0ZM28.542 39.66s.65 1.93 1.299 3.645c.65 1.77 2.002 5.04 2.002 5.04h.054l-.54-6.809-2.815-1.876c.054-.054 0-.054 0 0ZM32.278 41.59l4.384-1.823s.054 0 .054.054c-.216.375-1.028 1.822-1.894 3.913-.866 2.09-1.84 4.289-1.949 4.61h-.054s-.54-6.7-.54-6.754Z"/></g><path stroke="#BB3338" stroke-linecap="round" stroke-linejoin="round" stroke-miterlimit="10" stroke-width=".721" d="M50.46 51.4h16.508c2.11 0 3.842 1.716 3.842 3.806v5.308c0 2.09-1.732 3.806-3.843 3.806H50.46c-2.11 0-3.843-1.715-3.843-3.806v-5.308c-.054-2.09 1.678-3.806 3.843-3.806Z"/><path stroke="#fff" stroke-linecap="round" stroke-linejoin="round" stroke-miterlimit="10" stroke-width=".721" d="m52.249 54.349 1.245.697 1.299-.697M53.493 62.497V53.598M54.739 61.747l-1.245-.698-1.245.698M49.647 57.243l1.245-.697V55.1"/><path stroke="#fff" stroke-linecap="round" stroke-linejoin="round" stroke-miterlimit="10" stroke-width=".721" d="m57.388 60.3-3.897-2.251-3.897-2.252"/><path stroke="#fff" stroke-linecap="round" stroke-linejoin="round" stroke-miterlimit="10" stroke-width=".721" d="m57.334 58.852-1.245.696v1.448M50.838 60.942l.054-1.394-1.245-.75"/><path stroke="#fff" stroke-linecap="round" stroke-linejoin="round" stroke-miterlimit="10" stroke-width=".721" d="m57.388 55.85-3.897 2.199-3.897 2.198"/><path stroke="#fff" stroke-linecap="round" stroke-linejoin="round" stroke-miterlimit="10" stroke-width=".721" d="m56.14 55.152-.053 1.394 1.299.75"/><path stroke="#BB3338" stroke-linecap="round" stroke-linejoin="round" stroke-miterlimit="10" stroke-width=".411" d="M60.26 56.654v2.573c0 1.876 1.678 3.377 3.79 3.377 2.11 0 3.788-1.5 3.788-3.377v-2.573"/><path stroke="#BB3338" stroke-linecap="round" stroke-linejoin="round" stroke-miterlimit="10" stroke-width=".411" d="M62.534 56.654v1.715c0 1.126.27 2.037 1.515 2.037 1.245 0 1.516-.911 1.516-2.037v-1.715"/><path stroke="#fff" stroke-linecap="round" stroke-linejoin="round" stroke-miterlimit="10" stroke-width=".411" d="M65.565 56.654h2.273v-1.877h-2.273v1.877ZM62.534 56.654v-1.877H60.26v1.877h2.273Z"/><path stroke="#BB3338" stroke-linecap="round" stroke-linejoin="round" stroke-miterlimit="10" stroke-width=".411" d="m64.697 52.901-.974.75.974.59-.974.75"/></svg>