<svg xmlns="http://www.w3.org/2000/svg" width="86" height="86" fill="none" viewBox="0 0 86 86"><path stroke="#0D0B0B" stroke-width="3" d="M1.962 79.65V6.67l5.142-5.14h73.024l4.14 4.137V79.65l-4.14 4.137H6.101L1.96 79.65Z"/><path stroke="#fff" stroke-linecap="round" stroke-linejoin="round" stroke-miterlimit="10" stroke-width="1.082" d="m60.298 16.359 2.815 7.14c.183.484 0 1.029-.429 1.27-.979.545-2.57 1.513-3.549 1.816-1.04.363-3.427.605-4.59.726a.993.993 0 0 1-1.04-.605c-.428-.847-1.224-2.239-2.08-1.936-1.224.423-2.142 2.36-3.244 2.662-1.101.363-2.998.181-3.671-1.029-.673-1.21-.735-3.025.245-3.388.979-.363 1.59.06 2.998-.545 1.407-.544-.306-2.904.49-3.025.795-.182 1.774 1.27 2.508 1.028.735-.242.674-1.15 1.408-1.452.795-.302 1.101.242 2.509-.242 1.468-.484 4.65-2.783 4.65-2.783.307-.182.796 0 .98.363ZM64.338 27.25l1.346 7.564c.061.484-.183.968-.673 1.15-1.04.363-2.815.908-3.855 1.09-1.04.12-3.427-.122-4.651-.243a1.115 1.115 0 0 1-.918-.786c-.245-.908-.734-2.481-1.652-2.3-1.285.182-2.57 1.876-3.733 1.997-1.163.12-2.998-.424-3.366-1.755-.428-1.331-.06-3.086.98-3.267 1.04-.182 1.53.363 2.998.06 1.469-.302.306-2.904 1.102-2.904.795 0 1.468 1.633 2.264 1.512.795-.06.856-.968 1.652-1.15.795-.12.979.424 2.509.243 1.53-.182 5.14-1.816 5.14-1.816.367-.06.796.182.857.606ZM65.988 38.929l-.49 7.624c-.06.484-.428.908-.917.968-1.102.121-2.999.242-3.978.181-1.101-.12-3.366-.847-4.467-1.27-.428-.121-.673-.545-.673-.968 0-.968-.123-2.542-1.102-2.663-1.346-.12-2.937 1.21-4.1 1.09-1.162-.182-2.815-1.09-2.876-2.481-.061-1.392.673-3.026 1.714-2.965 1.04.06 1.407.726 2.937.786 1.53.06.98-2.723 1.713-2.541.796.181 1.102 1.936 1.836 1.997.734.06 1.04-.726 1.897-.726.857.06.857.665 2.387.847 1.53.181 5.385-.545 5.385-.545.367-.121.734.242.734.666ZM64.825 50.728l-2.142 7.383c-.123.484-.612.786-1.102.726-1.101-.121-2.937-.363-3.916-.666-1.04-.363-3.06-1.573-4.1-2.178a1.109 1.109 0 0 1-.49-1.09c.184-.907.429-2.54-.49-2.783-1.284-.423-3.12.545-4.222.182-1.101-.424-2.509-1.695-2.264-3.026.184-1.392 1.285-2.783 2.326-2.541 1.04.302 1.223 1.028 2.692 1.392 1.469.363 1.53-2.481 2.264-2.118.735.302.612 2.117 1.346 2.36.735.242 1.224-.484 2.02-.303.795.242.734.847 2.142 1.331 1.468.484 5.385.605 5.385.605.367-.12.673.303.55.726ZM61.4 62.164l-3.795 6.657c-.244.423-.795.665-1.285.484-1.04-.363-2.815-1.029-3.671-1.574-.918-.544-2.632-2.238-3.488-3.086a1.009 1.009 0 0 1-.184-1.15c.428-.846.98-2.36.184-2.843-1.163-.666-3.183-.182-4.162-.787-.979-.665-2.019-2.178-1.53-3.51.551-1.27 1.898-2.42 2.816-1.936.917.484.979 1.271 2.264 1.937 1.346.665 2.08-2.058 2.692-1.574.612.484.123 2.179.796 2.602.673.424 1.285-.242 2.02.182.733.423.489.968 1.774 1.755 1.285.786 5.14 1.815 5.14 1.815.49.242.673.665.428 1.028ZM37.471 21.32c3.366 6.294 5.14 13.676 5.14 21.36 0 7.685-1.774 15.068-5.14 21.36"/><path stroke="#fff" stroke-linecap="round" stroke-linejoin="round" stroke-miterlimit="10" stroke-width="1.082" d="M34.962 22.228c3.304 6.051 5.079 13.13 5.079 20.453 0 7.382-1.775 14.461-5.08 20.452"/><path stroke="#BB3338" stroke-linecap="round" stroke-linejoin="round" stroke-miterlimit="10" stroke-width="1.082" d="M28.843 42.257h5.63M32.391 40.018l2.877 2.24-2.754 2.238M28.477 42.257H21.5M23.58 44.496l-2.876-2.3 2.815-2.178M27.985 46.069v13.13M30.25 57.082l-2.264 2.844-2.265-2.723M27.985 39.715v-14.4M25.721 27.372l2.326-2.845 2.203 2.784"/></svg>