<svg xmlns="http://www.w3.org/2000/svg" width="86" height="86" fill="none" viewBox="0 0 86 86"><path stroke="#0D0B0B" stroke-width="3" d="M1.645 79.65V6.67l5.143-5.14h73.024l4.14 4.137V79.65l-4.14 4.137H5.784L1.645 79.65Z"/><path stroke="#BB3338" stroke-linecap="round" stroke-linejoin="round" stroke-miterlimit="10" stroke-width="1.082" d="M28.39 37.246c-.963 1.153-1.673 1.253-3.395 2.104-4.256 2.105-3.192 9.118-3.547 14.328M58.74 37.246c.962 1.153 1.671 1.253 3.394 2.104 4.255 2.105 3.192 9.118 3.546 14.328"/><path stroke="#fff" stroke-linecap="round" stroke-linejoin="round" stroke-miterlimit="10" stroke-width="1.082" d="M43.538 54.83c9.17 0 19.607-.1 26.599-1.552 1.975-.401 2.33-6.713 2.33-8.567 0-3.507-.304-7.965-2.23-8.867-2.28-1.052-3.951-1.654-5.268-.702-3.445 2.605-11.957 2.856-21.482 2.756-9.525.1-17.986-.2-21.482-2.756-1.266-.952-2.938-.35-5.269.702-1.824.851-2.128 5.36-2.128 8.867 0 1.904.405 8.166 2.33 8.567 6.992 1.453 17.43 1.553 26.6 1.553Z"/><path stroke="#fff" stroke-linecap="round" stroke-linejoin="round" stroke-miterlimit="10" stroke-width="1.082" d="M66.352 34.68s.658.25 1.418 1.353c.406.601 2.33 5.911-.608 6.963-7.751 2.656-17.276 2.205-23.863 2.205-6.586 0-16.06.45-23.913-2.205-2.888-1.052-1.014-6.362-.608-6.963.81-1.102 1.418-1.353 1.418-1.353"/><path stroke="#BB3338" stroke-linecap="round" stroke-linejoin="round" stroke-miterlimit="10" stroke-width="1.082" d="M64.966 28.93c-1.57 2.104-1.722 3.808-21.836 3.808-20.114 0-20.266-1.704-21.836-3.808"/></svg>