<svg xmlns="http://www.w3.org/2000/svg" width="87" height="86" fill="none" viewBox="0 0 87 86"><path stroke="#0D0B0B" stroke-width="3" d="M2.304 79.65V6.67l5.142-5.14H80.47l4.14 4.137V79.65l-4.14 4.137H6.443l-4.14-4.137Z"/><path stroke="#fff" stroke-linecap="round" stroke-miterlimit="10" stroke-width=".411" d="m19.985 35.836 7.198 4.575M48.057 51.24c1.646.762 3.29 1.423 4.987 1.626 1.646.204 7.301-2.49 8.124-4.321"/><path stroke="#fff" stroke-linecap="round" stroke-linejoin="round" stroke-width="1.082" d="M41.16 62.474c-.05 1.78-.05 8.795-.05 10.32M44.042 51.24c-2.056.61-2.88 2.592-2.88 2.592v4.372M41.99 50.172c-.36.152-2.52 1.321-2.93 1.27-.412-.05-3.96-1.728-4.268-1.88"/><path stroke="#fff" stroke-linecap="round" stroke-miterlimit="10" stroke-width="1.082" d="m32.116 44.935-.976 2.186c0 .407 3.444 2.339 3.65 2.44v20.793c1.182 2.644 5.295 3.61 6.272 3.61.977 0 2.417-1.017 2.777-1.678 0-.762.05-10.93.257-18.454.051-.712.102-1.525.514-2.135"/><path stroke="#fff" stroke-linecap="round" stroke-linejoin="round" stroke-width=".411" d="M29.16 31.903a2.099 2.099 0 0 1-1.749 0c-.463-.204-.411-.712.051-.864a2.22 2.22 0 0 1 1.8 0c.154.101.36.254.308.457-.051.203-.205.305-.41.407ZM24.726 34.19c-.514.254-1.183.254-1.748.05-.566-.203-.566-.711 0-.965.565-.255 1.336-.255 1.902.05.411.204.257.712-.154.865Z"/><path stroke="#fff" stroke-linecap="round" stroke-linejoin="round" stroke-width="1.082" d="M20.087 33.802c2.108 2.033 25.86 15.76 33.213 17.336 1.285.254 6.17-1.78 7.917-4.372M32.323 45.088l12.442 6.558"/><path stroke="#fff" stroke-miterlimit="10" stroke-width="1.082" d="M44.765 51.646c1.748.864 3.548 1.78 5.347 2.542 1.131.457 2.57.61 3.856.457 2.417-.508 6.53-2.846 7.712-4.626.052-.508 0-1.372 0-1.372s-.308-.204-.565-.204c0-.254 0-.813.051-1.576.052-.762-4.37-3.253-4.884-3.508-7.712-4.32-25.398-13.624-27.712-13.624-1.697 0-5.758 2.135-8.226 3.864-.154.152-.309.254-.411.457-.052.305 0 .66 0 1.017v.915c-.206.152-.412.356-.514.56-.052.203 0 .406.051.61.103.355.411.558.72.813 3.393 2.338 11.928 7.117 11.928 7.117"/><path stroke="#fff" stroke-linecap="round" stroke-linejoin="round" stroke-width=".411" d="M53.774 49.198a2.099 2.099 0 0 1-1.748 0c-.462-.203-.411-.712.052-.864a2.218 2.218 0 0 1 1.8 0c.153.101.36.254.308.457-.103.204-.257.356-.412.407ZM57.825 46.613a2.099 2.099 0 0 1-1.748 0c-.463-.203-.411-.712.052-.864a2.22 2.22 0 0 1 1.799 0c.154.101.36.254.309.457a.555.555 0 0 1-.412.407Z"/><path stroke="#BB3338" stroke-linecap="round" stroke-linejoin="round" stroke-miterlimit="10" stroke-width=".411" d="M52.68 62.678s-.308-.305-1.285-1.118c5.502 1.27 23.548-2.593 18.355-14.743l1.182.406M51.346 61.56l1.183-.661M69.75 46.817l-.874.763M66.103 41.835l.154 1.068-33.521-16.98-.052 1.17M32.735 25.921l1.697-.202M66.307 42.851l-1.748.152M28.417 67.508l-1.08 1.068V47.834l-1.131.864M27.339 47.833l1.336 1.78M27.337 68.626l-1.131-1.627M13.456 28.872l-.36 1.067 9.255-5.389.411.865M22.352 24.549l-1.543-.203M13.097 29.938l2.107.203"/><path stroke="#fff" stroke-miterlimit="10" stroke-width="1.082" d="M55.874 31.006c4.01 1.932 10.18 3.1 14.087.559.463-.813.052-2.542-.205-3.66-.669-3.05-17.07-10.32-21.028-12.15-5.09-2.34-11.517-4.22-16.041-4.729-2.108-.203-3.6-.406-4.987.712-1.234.966-3.085 3-1.543 4.474 10.232 6.71 19.794 9.964 29.717 14.794Z"/><path stroke="#fff" stroke-linecap="round" stroke-linejoin="round" stroke-width="1.082" d="M59.471 28.413c5.142 1.932 10.952.763 10.232-.457M27.696 11.79c-1.594 1.626 10.745 7.676 20.153 11.743"/><path fill="#fff" d="m67.543 27.346-1.953-.61-.412.813 2.365-.203ZM63.378 24.956l2.056 1.424 2.108.66-4.164-2.084ZM63.071 25.058l2.108 1.474-.411.712-1.697-2.186Z"/><path stroke="#BB3338" stroke-linecap="round" stroke-linejoin="round" stroke-miterlimit="10" stroke-width=".411" d="m37.259 41.326 1.85 1.067c1.337.763 3.445.61 4.68-.305 1.233-.966 1.13-2.338-.258-3.1l-1.85-1.069-1.338 1.017 1.234.712c.823.457 1.286.966.566 1.525-.72.56-1.543.305-2.365-.152l-1.234-.712-1.285 1.017Z"/><path stroke="#fff" stroke-linecap="round" stroke-linejoin="round" stroke-miterlimit="10" stroke-width=".411" d="m40.347 38.937 1.337-1.017-1.337-.763-1.336 1.017 1.336.763ZM38.598 40.31l-1.337-.763-1.336 1.017 1.336.762 1.337-1.017Z"/><path stroke="#BB3338" stroke-linecap="round" stroke-linejoin="round" stroke-miterlimit="10" stroke-width=".411" d="m33.714 38.073-.051.915 1.234-.255-.052.916M37.003 35.48l-.051.915 1.234-.254v.966"/></svg>