<svg xmlns="http://www.w3.org/2000/svg" width="305" height="50" fill="none" viewBox="0 0 305 50"><g fill="#6F0000" clip-path="url(#clip0_147_1126)"><path d="M285.373 13.645c.344.085.688.182 1.032.253.198.029.4.042.602.039-.551.608-1.651-.266-1.84.964l-.963-.647v.745l-.568-.357-.292.648c.283-.065.516-.123.748-.162a6.6 6.6 0 0 1 .619-.045v.162l-.636.433.172.201c.283-.246.576-.486.859-.738.284-.253.654-.149.791.272-.206-.033-.386-.058-.558-.084v.194h.859v-.59l-.859-.407h2.106v.175c-.284.058-.567.116-.911.194l.817.35-.138.103.249.499h-.859v.505c-.121.647-.611.647-1.153.563a2.863 2.863 0 0 0-.524.039v.168c.722.071 1.453.116 2.167.214 1.014.142 1.066.22 1.04 1.41h3.99v.247l-.499-.039-.077.136.756.42c-.464.066-.859.117-1.229.17v.724l.378-.304.92 1.159c-.266-.065-.387-.11-.516-.13-.129-.019-.266 0-.318 0-.051 0 0 .201 0 .298v.602c.275 0 .645.052 1.023.084v-.194c-.197 0-.395-.071-.67-.116.696-.318.86-.266.98.42-.155 0-.318 0-.464.052-.697.143-1.496-.226-2.116.434-.189.2-.73.11-1.246.168l2.089.272-.043.214c-.335 0-.662.052-.997.084l.18.518.121-.35c.299.175.618.329.954.46.155.052.516-.039.533-.11.138-.647.585-.42.946-.265.224.097.378.33.679.595-.404 0-.593 0-.903.039l.362-.408c-.215 0-.405-.052-.654-.09l.095.68c-.86-.596-.998.11-1.411.427l.138-.499c-.559.188-.688.453-.327.615.112.052.284 0 .413.039.116.057.22.127.31.207l.094-.356c.43.097.86.181 1.256.272l.051.59-1.47.88.756.556.224-1.087.473.783-.602.719h-.86c1.582.427 2.081.33 2.313-.395l-.602-.143.8-.446.292.647c.129-.104.319-.188.405-.33.108-.223.192-.453.249-.686-.585.453-1.092.246-1.66-.525l.723-.11-1.118-.414c.292-.065.585-.13.86-.188l-.164-.511.164-.085.43.693.103-.582.713.174v.13l-.541.155v.136c.731-.045 1.462-.084 2.382-.136.507.363 2.381.324 3.345-.362l-.061.382c.361 0 .705-.033 1.256-.059-.628.648-1.17 1.16-1.789 1.755l-.241-.79c-.705.155-1.659-.233-1.831.79 0 .213.206.46.335.744l-.43.156-.154-.59-.078-.038-.12.537h-.714l-.292-1.45h-.456l-.774 1.23h.292l.104.706c-.19.045-.396.09-.602.136.43.116.911.077 1.014.647v-.932s.25 0 .456-.052l.043.466 2.029.207v.24h-2.08c.584 1.055-.551.472-.86.57-.31.097-.86-.072-1.307-.227l1.092-.291v-.136c-.628 0-1.264.051-1.969.084.765 1.03 1.874.725 2.872.764v.24c-.551 0-1.101.058-1.651.083v.195a19.503 19.503 0 0 0 1.513-.085c.86-.11.997 0 .86.615l-.903-.31-.292 1.055a1.108 1.108 0 0 0-.418-.402 1.595 1.595 0 0 0-.626-.195 1.74 1.74 0 0 0-.672.061 1.372 1.372 0 0 0-.546.303l.49.142v.156c-.309-.046-.627-.09-1.075-.15l.362-.323-.104-.188c-.215.13-.602.24-.61.382 0 .531.043 1.075.077 1.684a5.775 5.775 0 0 1-.86.168c-.172 0-.361-.13-.541-.2.131-.085.255-.176.369-.273.069-.08.123-.168.164-.259l.499.492v-1.36l-1.221 1.037a1.511 1.511 0 0 0-.207.174c-.344.486-.533.499-.911.046-.344.57-1.72.563-.972 1.702l.146-.537c.499 0 1.032-.058 1.574-.09v-.188c-.396 0-.783.051-1.178.084v-.227c.602 0 1.204-.058 1.9-.09l-.301.46c.224-.046.413 0 .516-.104.103-.104.396-.453.447.07.318 0 .636-.07 1.023-.116l.86.447-.154.37h.859l-.584.478-.396.31.129-.718-1.367 1.217.086.175-.74-.246.86-.22c-.971-.22-1.788-.408-2.657-.608-.043.077-.111.24-.163.369-.576.272-1.169-.978-1.668.051l-.774-.285.137-.505c.284-.064.568-.135.86-.2v-.123h-1.453l.456.828-.714-.29c-.301.75-.989.4-1.487.517-.241.058-.542-.071-.757 0-.559.22-.654 0-.619-.647l-.55.57-1.101-.273c0 .415-1.041 0-.714.68.594.046 1.178.084 1.763.13v.252h-4.446c-.301.984-1.238.195-1.771.453l.576-.906.172.039-.18.544c.481-.447.481-.447.275-1.107-.49.123-.972.252-1.453.382-.293-.92-1.092-.35-1.574-.596-.052.55-.404.647-1.66.59v.168c.663 0 1.325.051 1.987.058.662.006 1.29 0 1.926 0v.395c-1.574-.033-3.139-.078-4.712-.091-.121 0-.258.175-.379.272l-.223.188c-.129.084-.267.155-.404.24l.077.161h1.161l-1.479.647c-.172-.44.163-1.042-.112-1.527l-.731.537-.98 1.21c.722-.129 1.324 1.12 2.442.518-.232-.058-.378-.09-.516-.129v-.136c.439 0 .86-.058 1.471-.097l-.86.647c.438-.058.731-.097 1.057-.142v-.99l.602.427-.103-.46h1.126l.086-.693.327.564.439-.499v1.004c.292.032.584.07.946.123v-.415h.808l-.396.952 1.101-.803c.602.945.903.984 1.659.337.09-.055.192-.097.301-.123l.241.55.172-1.03.86.849-.129.155c.327-.116.654-.24.808-.291.405.13.68.226.963.317l.138-.304-1.539-.712h1.616v-.182l-1.212-.077v-.214c.619-.045 1.23-.09 1.84-.142l.06.22-.619.712.224.835c.361-.188.361-.188.86-1.631l.301 1.378c.257-.15.548-.264.859-.336.334.02.66.083.963.188l.095-.596c.327.136.671.285 1.023.44l.284-1.133.602.648.662-.648-.18 2.273 1.238-1.217.404.492c.155-.072.43-.123.464-.233a3.446 3.446 0 0 0 0-.861l.473.504.198-.369.18.123c-.154.188-.309.376-.472.557 0 .045-.104.071-.215.143.584.517.808-.233 1.126-.246l.748 1.016.086-.44c.722-.272 1.324-.492 1.926-.712l.06.116-.627.343.086.188 1.126-.382c-.036.186-.09.37-.163.55a2.806 2.806 0 0 1-.387.415l.722.42.12-.194-.473-.252V38.7c.19 0 .37-.033.602-.052l-.352-1.049.387-.615.103 1.055h.189l.267-.53c.163.038.352.084.722.168-.267.084-.378.117-.49.149l-.06.142c.215.065.438.123.748.214l-.49 1.042c.266-.07.567-.155.92-.246l.077.292c.189 0 .413-.046.619-.072l.112 1.211c-.292.052-.292.052-.619-.939l-.232 1.036h-.404v.162l1.289.272v.181c-.498 0-1.178-.408-1.453.37l.06-.454c-.473.233-.937.932-1.504.065l-.078.841a2.486 2.486 0 0 0-.404-.602c-.18-.13-.473-.278-.653-.226-.636.192-1.259.408-1.866.647l-.078-.162-.077.447v.039c-.86.142-.335-.37-.327-.7l-.602.24.267.648-1.152-.292c.335-.097.498-.149.653-.194v-.097h-.937v-.427l-.963.356-.095-.188.318-.24-.051-.097a15.52 15.52 0 0 0-.645.181l.155-1.184c-.336.052-.319.052-.267.874 0 .375-.043.757-.069 1.152l-.842-.893-.181.09.249.648-.756.291.232-.434c-.095-.22-.146-.472-.232-.485a.91.91 0 0 0-.329 0 .78.78 0 0 0-.29.116c-.439.382-.62.246-.697-.077l-1.599-.162-.095.136.628.505-.069.278c-.387-.058-.782-.136-1.169-.168-.104 0-.224.097-.327.149h-1.591l.516-.363c-.481.104-.86-1.224-1.402-.045l.903.434h-.98l-.18-.531-.181.07c.163.266.309.739.49.752.769.032 1.54.013 2.305-.058l.103-.279 1.049.81.576-.447c.036.173.096.342.18.505.129.154.275.3.439.434.081.07.137.154.163.245 0 .065-.103.195-.163.195a4.428 4.428 0 0 1-1.316-.11l.688-.175-.189-.253h-1.453l.06.473c-.61.052-1.195.097-1.771.149v.09c.238.06.488.093.739.098.301 0 .619-.195.611.33.27.094.562.147.86.155.242-.037.477-.1.696-.188l-1.083 1.256.67.26c-.473.077-.859.135-1.255.2v.149c.318.045.636.09.972.136-.225.288-.568.513-.977.641a2.68 2.68 0 0 1-1.293.071l.043.181c.18 0 .361 0 .619.052l-.645.447-.241-.648a4.786 4.786 0 0 0-1.402-.045c-.387.071-.722.408-1.074.648l-.129-.143.309-.511-.12-.091-1.058.9-.094-1.03-.147-.038-.335.731-.163-.647-.318.511-.258-.524-.147.078-.103.466c-.791-.181-.12-.738-.413-1.094-.421.518-.498 1.482-1.676 1.055l.498-.343-.068-.117-1.342.732.318-.648s-.068-.077-.086-.07c-.189.064-.533.142-.524.206 0 .44-.258.311-.516.298h-1.436l.103.57c-.524-.725-1.255-.648-2.029-.473l-.112-.323-1.058.647-.154-.142.43-.538v-.11a6.81 6.81 0 0 0-.663.214 1.752 1.752 0 0 0-.343.265v-.576l-1.333.745-.25-.648h-.137l-.146.868h-.155l-.129-.719c-.55.039-1.092.078-1.72.117l-.258-.428-.765.408-.112-.524-.335.453-.86-.466-.327.686-.997-.518-.86 1.114v-.583c-.232-.181-.379-.317-.542-.42-.327-.202-.619-.441-1.049-.066a1.873 1.873 0 0 1-1.032.415c-.275 0-.567-.253-.86-.395l.078-.214c-.258 0-.516.046-.946.084.232.065.309.098.395.117.086.02.172 0 .258.032v.188c-.507.045-1.014.09-1.582.136l-.163.647-.258-.064.206-.518h-1.006l-.232.647-.172-.822h-.782l-.147.356-.43-.693c-.309.473-.756.725-1.221.512l-.902.66-.138-.142.49-.512-.12-.149c-.293.059-.576.117-.903.175l-.275-.647-1.213 1.113c-.051 0-.292-.045-.447-.071.241-.324.447-.59.654-.848l-.215-.155-.439.46-.928-.525v.615a77.375 77.375 0 0 1-.972-.24l.051-.187-1.006.75-.137-.31h-1.109l.636.447v.084c-.241-.11-.473-.24-.722-.337-.25-.097-.525-.246-.766-.214-.24.033-.344.285-.516.447l-.129-.123.276-.33c-.491-.104-.963-.194-1.565-.317l-.594.712h-.137l.06-.447-1.032-.434a1.486 1.486 0 0 1-.742.322 1.745 1.745 0 0 1-.849-.082c-.06 0-.189.045-.283.052-.362.045-.723.077-1.11.116v.363h-.12l-.232-.324c-.654-.039-1.204-.09-1.72-.084a7.053 7.053 0 0 0-1.616.142c-.387.091-.637.182-.671-.11a7.24 7.24 0 0 1-.757 0 9.348 9.348 0 0 0-1.109-.168c-.817 0-1.625.065-2.459.103l-.258.687c-.25-.123-.43-.22-.654-.337l.353-.291h-2.786l-.774.44.129-.434c-.249.162-.705-.291-.705.343 0 .033-.275.072-.422.098a26.26 26.26 0 0 1-.696.103v.2c.181 0 .361.046.533.066v.207c-.284-.052-.576-.11-.86-.162l-.112-.33c-.011.09-.031.178-.06.265a.895.895 0 0 1-.146.181.653.653 0 0 0-.095-.18c-.103-.098-.206-.273-.326-.28h-2.176c.121.616-.241.648-.705.551v.181c.198.084.396.162.593.24v.175h-3.439v.24a3.325 3.325 0 0 1 1.024.052c.333.07.643.19.911.355h-1.952c-.164 0-.31-.207-.473-.31-.163-.104-.396-.234-.602-.35l-.112.187.439.175c-.456 0-.86.181-1.118.065-.86-.363-1.213-.408-1.832 0l.757.375.224-.284.249.595c-.525-.142-.86-.265-1.247-.337a8.818 8.818 0 0 0-1.04-.116c-.078-1.191-.078-1.191-1.015-1.1l.688.29-.636.35.18.531c-.61.15-.662-.142-.55-.479-.215 0-.404 0-.628-.045l-.06.57c-.439-.505-.963-.609-1.29-.292.215-.699-.559-.291-.688-.595-.378.46-.249.686.301.738-.524.233-.86.064-1.178-.363-.051-.071-.137-.175-.206-.175a8.29 8.29 0 0 0-2.141-.013c-.284.072-.611.415-.972.35s-.602-.291-.98-.324l.722.447h-1.513l-.112-.389-1.049.531-.129-.22.456-.226c0-.324-1.892-.285-2.227.058a.259.259 0 0 0-.052.11l-.963-.453-.172.213c.12.046.249.085.361.123l-.713.83v-.94h-.095c-.069.143-.206.298-.181.428.155.803-.318.647-.705.53l.594-1.003c-.654.065-1.118.104-1.574.149v.123l1.058-.058.068.207c-.232.058-.481.188-.696.162-.215-.026-.516-.233-.791-.311-.447-.136-.912-.227-1.341-.33l-.181.576c-.112-.097-.206-.233-.335-.272-.37-.104-.766-.168-1.144-.252-.318 1.055-1.221.369-1.72.608l-.756-1.068-.637.11c-.352-.065-.705-.136-1.057-.2l-.078.194.301.511h-1.866v.362c-1.066-.867-2.33-.051-3.396-.407l-.422-.395-.713.699c.361 0 .516-.045.67-.058v.161a4.015 4.015 0 0 1-.636-.11c-.137-.038-.241-.155-.352-.24l-.112.409-1.17-.712.061.828a2.95 2.95 0 0 0-.233.046l-.189-.576h-4.17c-.172 0-.335-.15-.499-.227h-.077l-.568.246-.155.55h-.18l-.112-.576h-3.027a7.21 7.21 0 0 1-1.324-.214c-.628-.136-.971.052-1.014.648h-.654l.37-.421h-2.365v-.117c.172-.064.344-.123.705-.246l-1.023-.207c-.086 1.043-1.058.35-1.582.609l-.164.505h-.111v-.525c-.422.072-.783.136-1.204.214v-.647c-.55.796-1.075.42-1.643.045l-.223.486c-.86-.065-1.625-.123-2.425-.182-.241.13-.352-.55-.705 0 0 0-.129 0-.198-.045s-.387-.071-.576-.104l.258.745-.585.071.112-.829c-.542.091-.997.162-1.496.246l.198.318-.138.148-.679-.505c-.525.292-1.599-.744-1.943.531l-.078-.809-.456.57-.343-1.017-1.075 1.088h-.568l-.077-.13c.172-.11.344-.226.516-.33l-1.273-.57c-.077.137-.146.409-.292.447-.146.04-.499 0-.748-.058v-.213l-.946.692c-.344-.078-.662-.706-1.152-.084-.052.058-.577-.194-.86-.291l-.688.46-.129-.143.249-.291c-.215-.04-.421-.072-.593-.104l-.31.447-.275-.855-.911.835c-1.084-.395-2.159-.22-2.374.577l-.111-1.01a4.535 4.535 0 0 0-1.728.007 3.845 3.845 0 0 0-1.505.64v-.596c-.327.285-.628.557-.946.81-.06.045-.224 0-.336 0l.112-.376c-.361 0-.679.058-1.057.09l-.043-.543-.577.337c-.275-.13-.559-.253-.859-.382l-.086.142.679.337c-.611.058-1.032.103-1.72.168.249-.227.404-.376.636-.602h-1.719c-.095 0-.172.168-.275.233-.104.065-.362.278-.534.272-.172-.007-.309-.207-.455-.31l-.181.316-.86-.686-.18.874c-.164-.99-.731-.498-1.221-.608l.266.46c-.206-.06-.387-.066-.49-.15-.688-.602-.696-.608-1.058.188l-.24-.719-.86.609c-.379-.22-.86-.498-1.393-.79l-.129.686a1.618 1.618 0 0 0-.86-.236c-.315 0-.619.084-.86.236-.464-.498-.619-.479-1.135.24l-.309-.492c-.207.706-.387-.052-.663.058l-.258.538c-.361-1.107-1.427-.091-1.969-.777l-.266.68-1.471-.493-.094.169.559.401h-1.987c-.472-.958-1.238-.524-2.012-.401.181.13.31.226.447.317l-1.049.486-.086-.13.387-.246c-.24 0-.404-.039-.584-.058l.154-.648c-.619.35-1.083.615-1.556.874l-.129-.174.396-.285v-.169h-2.915l.326.395c-.361.059-.687.11-1.092.181l.224-.453-1.006-.369v-.18l-.929.756c-.567-.997-.86.402-1.462.13l-.077-.227c-.284 0-.481 0-.619-.07-.361-.182-.688-.415-1.04-.61-.07-.038-.19 0-.284 0a6.347 6.347 0 0 1-1.1.052c-.362-.045-.568-.045-.783.285-.112.175-.473.246-.74.272-.086 0-.206-.265-.335-.453-.335.149-.86-.265-1.213.337-.154.226-1.049.038-1.573.038l-.25.648a2.697 2.697 0 0 1-.214-.065l.068-.81c-.696.124-1.41.253-2.124.376l-.06-.2.508-.24a2.666 2.666 0 0 0-1.461-.095c-.486.105-.903.342-1.17.665l-.121-.68h-.68l-.077.602h-.086v-.479H84.56c-.129.46-.335.835-1.023.538-.207-.091-.516.07-.774.051-.258-.02-.774.065-1.015-.375-.137-.246-.498-.648-.713.039-.043.13-.293.194-.327.213l-1.763-.537-.112.188.327.563-1.625-.162c0-.466-.215-.75-.92-.498l.12.647a2.782 2.782 0 0 1-.653-.2 2.515 2.515 0 0 1-.465-.48l-.094.648-1.032-.602-.146.602-.258-.046.094-.582-.756-.292-.13 1.03-.635-.648a.99.99 0 0 0-.215-.175 3.51 3.51 0 0 0-1.24-.06 3.17 3.17 0 0 0-1.142.371c-.198.11-.594-.064-.86-.116-.267-.052-.654-.123-1.187-.22.447.207.688.323.929.44v.103H67.61l-.095-.395-1.066.538-.12-.207.542-.324c-.912-.117-1.72-.35-2.503.22-.696-.505-1.341-.447-1.72.052a5.166 5.166 0 0 0-.739-.272c-.627-.136-1.367.486-1.934-.253a9.665 9.665 0 0 0-.99.512c-.49-.648-1.263-.175-2.192-.22l.619.323v.13c-.361 0-.714.039-1.204.058l.413-.466c-.413-.2-1.393.279-1.015-.738-.387-.24-.937.343-1.324-.337l.8.13v-.24c-.422 0-.86-.052-1.213-.07-.137-.15-.275-.422-.395-.415-.12.006-.413.2-.697.35a4.132 4.132 0 0 0-1.023-.318 7.725 7.725 0 0 1-.937-.065 3.741 3.741 0 0 1-.757-.161c.172-.046.344-.085.516-.123v-.104H49.22l.558.304c0 .046-.06.104-.086.104-1.29 0-1.29 0-1.582-.518-.206 0-.421.052-.627.065a.825.825 0 0 0-.29.037.656.656 0 0 0-.235.131l.791.123-.077.291c-.585-.149-1.178-.291-1.78-.44-.284.512-.68.544-1.264.045a1.398 1.398 0 0 0-.809-.252l.353.486h-1.53l-.044.2.56.168c-.577.195-.663.143-.723-.427a1.126 1.126 0 0 0-.163-.317c-.052.09-.095.214-.18.252-.221.102-.451.19-.689.266h-1.35v-.46l-.946.356-.146-.446a3.197 3.197 0 0 1-.983-.053 2.778 2.778 0 0 1-.874-.342c0 .414-.353.479-.86.155l.06.272.637.337c-.576.077-1.118.142-1.85.233l.947-.609c-.628.123-1.307-.265-1.9.084v.182l.55-.078v.181c-.379.032-.748.065-1.127.104a6.023 6.023 0 0 1-1.17.11c-.534-.075-1.06-.18-1.573-.317v-.182l-.713.389-.594-.499-.3.389c-.181-.091-.448-.227-.714-.37l-.095.182c.172.084.344.175.525.259l-.078.181-1.694-.615h-2.27l.284.434c-.43-.155-.688-.816-1.333-.2l-.129-.441c-.077.272-.86 0-.911.647 0 0-.508.072-.576 0-.516-.712-1.247-.33-2.073-.492-.111-.259-.292-.647-.49-1.094-.128-.25-.375-.454-.693-.574a1.858 1.858 0 0 0-1.027-.073v-.693c-.206 0-.498.045-.584-.058-.344-.35-.645-.408-.903-.065l-.662-1.385-.215.032-.095.486h-.197l.197-.959c-.524-.051-1.135-.11-1.814-.18l.37-.415h-2.047l.318.557c-.507-.389-.86-.687-1.264-.99l-.154.33h-.07l-.128-.706h1.118v-.208c-.568 0-1.135.052-1.72.078.16.149.296.312.404.486 0 .038-.25.285-.318.259a5.096 5.096 0 0 1-.783-.421l-.86.803c-.223-.156-.137-.648.327-.94-.86-.116-1.917.195-2.58-.88l-.163.648h-.12a2.7 2.7 0 0 1 .094-.842c.135-.205.312-.393.525-.557l-.163-.136-.49.434-.095-.414H4.858l.112-.382c-.482-.09-1.135.13-1.264-.602a.1.1 0 0 0-.043-.059.427.427 0 0 1-.1-.268c0-.095.034-.188.1-.269-.362-.071-.731-.149-1.101-.226v-.169l.516.04.077-.17-.559-.265c.465-.518 1.04-.841 1.875-.511v.466l.567-.24-1.014-1.061.069-.253c.49 0 .988-.058 1.341-.084l-.378-.984h2.158v-.227l-.86-.058-.172-1.25c.224 0 .387-.032.593-.051-.507-1.25.56-.408.938-.648l.111 1.062h.086c-.018-.27.032-.54.147-.796.103-.136.49-.13.739-.117.077 0 .129.26.258.525.086-.984 1.058-1.619.74-2.538.395-.084.808-.175 1.375-.291l-.481-.389-.164.376c-.31.07-.765-.395-.74-.745l.19.2c.318-.193.62-.355.86-.55a.81.81 0 0 0 .318-.375c0-.065-.19-.213-.318-.278-.353-.188-.722-.343-1.127-.538l.353-.446-.18-.097-.293.582h-.86l-.24.803c.171-.078.3-.13.43-.181l.085.388.766.505L8.143 31.3l.782.071v.169c-.43.103-.86.213-1.393.343l-.559-.356c0-.207-.06-.44-.051-.648.008-.207 0-.505.111-.582.246-.099.522-.146.8-.136.155 0 .31.038.499-.065l-1.333-.48-.103.299h-.172c.034-.19.091-.376.172-.557.07-.113.167-.216.283-.304l-.808-1.185-.189.071c.103.647.73 1.405-.25 1.942-.438-.123-.61-.712-.309-1.256.447-.796.112-1.295-.911-1.25l-.198.616-.335-.648c-.19.052-.413.175-.568.123-.155-.051-.206-.284-.318-.46-.404-.032-.86-.07-1.204-.096l-.138-1.094-.705.537c-.043-.48-.129-.777.439-.92.24-.058.387-.466.576-.718l.507.33-.653.408.163.207c.37-.226.731-.472 1.118-.647a.934.934 0 0 1 .533-.052 1.806 1.806 0 0 0 1.114-.052c.17-.067.32-.159.441-.271a.98.98 0 0 0 .26-.383c-.301-.09-.594-.175-.98-.285-.06-.317-.336-.809-.181-1.139.154-.33.722-.59 1.204-.945.085.647.412.589.67.395l1.359 1.333 1.135-1.113c-.568.155-.937.259-1.23.337l1.806-1.787-.275-.576c-.112.11-.172.174-.241.233-.275.312-.598.599-.963.854-.167.105-.361.182-.57.228a2.086 2.086 0 0 1-.642.038c-.276-.059-.542-.505-.62-.816.022-.276.135-.542.327-.777.092-.127.205-.244.336-.35.455.201.928.421 1.436.648l.154-1.081c.25-.046.473-.091.783-.15l-.379-.433 1.084-.123c-.48-.172-.948-.362-1.402-.57a4.37 4.37 0 0 1-.713-.55l.705-.304c.086-.04.154-.085.335-.182l-.86-.22v-.116c.198-.046.396-.084.688-.156l-.49-.382.74-.647-.147-.155-.455.395-.12-1.438a9.218 9.218 0 0 1 0-1.392c0-.187.782-.13 1.005.104.086-.11.155-.227.25-.324a3.94 3.94 0 0 1 .36-.298l-.43-.414 1.256-1.023.232.382.938-.31-.688-.136v-.085l1.376-.077-.276.297c.345.17.762.233 1.167.178.404-.056.765-.226 1.009-.475l.051.265-.249.143-.344.187c.353.162.61.285.86.408l.86-.867c.61 1.08 1.72.13 2.58.446l.137-.498c.112.045.172.058.232.09.206.117.542.37.585.337.585-.511 1.22-.097 1.608.097.387.194.498-.142.748-.123.25.02.335-.13.533-.22-.06-.084.636-.647-.361-.725l.954-.375v-.085H21.3l.387-.382-.774-.35v-.135c.387-.052 1.014 0 1.1-.169.284-.576.757-.213 1.118-.31.139-.023.283-.023.421 0 .422.039.809.052.955-.453 0-.123.3-.188.645-.382h-1.496v-.182l.748-.103-.13-.097 1.058-1.114-.473-.22.07-.214c.42.382 1.143-.485 1.452.454 0 .064.43 0 .688.038l-.774-.9c.534-.07.93-.129 1.325-.18v-.124c-.362-.052-.723-.097-1.084-.149v-.116c.56-.13 1.11-.266 1.642-.395l.774.42c0-1.249 1.11-.194 1.41-.79l-.541-.537c.74.22 1.298.363 1.53-.35.3-.041.609.008.86.137.318.304.56.453 1.04.356.242-.045.551.168.86.278l.052-.35c.482-.038.912-.07 1.342-.103.49 0 .988 0 1.479.071.163 0 .447.104.473.201.12.518.481.343.86.324h1.633l.103-.958c-.524.731-1.1.97-1.831.602 0-.596.292-.77.86-.719.233-.006.464-.035.688-.084.31 0 .619.058.954.09l-.206-.427.601-.175-.068-.2a3.039 3.039 0 0 1-.705.149 3.17 3.17 0 0 1-.723-.195l.147.777-1.093-.298.258-.375-1.135.563-.043-.084.817-.9.74.24.12-.518c-.292.045-.576.09-1.075.175l.43-.44c-.989.763-2.15.394-3.336.427l.292.414c-.627.401-.567 0-.55-.401l-.19-.078-.472.977h-.86l-.335-.57.86.117c.103-1.087.352-1.236 1.461-.9 1.11.337 1.247.24 1.54-.446.67.07 1.34.142 2.089.226l.525-.323-.13-.324-1.126.272-.06-.188c.67-.11 1.058-.92 1.969-.498l-.06-.499 1.247.706c-.086.479-.482.427-.86.401-.164 0-.327-.097-.49-.103a.415.415 0 0 0-.161.054.287.287 0 0 0-.106.107c0 .072.146.26.146.253.671-.337.963.265 1.488.583l.8-1.366c-.43.045-.645.07-.86.09v-.583c.378.15.645.253.92.37.24-.117.516-.266.86-.428l-.078-.414.18-.065c.07.097.216.246.181.291-.292.44-.619.868-.954 1.295h.774c.456.77.456.77 1.823 0l-.164.557c.422-.11.774-.207 1.135-.304l.637.44.206-1.295-.155-.175c-.438.233-.86.46-1.324.687l-.095-.11.37-.512a.944.944 0 0 1 .466-.21c.181-.03.37-.016.54.042.328.054.669.043.99-.033.54-.116.902-.045.91.557.585-.46 1.42-.136 1.608.596-.67-.55-1.487-.233-2.27-.304l.628.356c-.413.038-.8.07-1.186.103.207.104.46.143.705.11.636 0 1.264.04 1.9 0 .069 0 .137-.207.206-.317l.447-.583c.14.344.232.698.276 1.056 0 .136-.387.259-.56.369l.646.68h2.381v-.11c-.567-.085-1.135-.175-1.72-.26l-.042-.11c.206-.07.421-.136.705-.226l-.697-.26c.361 0 .516-.038.731-.051l-.18-.583h.928a3.407 3.407 0 0 0-.387.466c-.065.159-.11.321-.137.486.197 0 .395.078.602.09a5.57 5.57 0 0 1 1.487.208c-.464.252-.928.511-1.547.841.481 0 .92.046 1.358.065v.156c-.284 0-.559.064-.86.09-.584.046-.696.227-.37.706l.327-.499.49.648.241-.188 1.23.511.077-.142-.533-.298.069-.162 1.281.454v-.37c1.144.279 1.72 0 2.064-1.21.172.194.412.401.378.453a9.188 9.188 0 0 1-.774.906l.112.564c.507-.648 1.281-.544 2.055-.492l-.043-.648c.473.084.86.162 1.376.253l-.078.453c.714-.304 1.617.369 2.219-.557l.12.648 1.35-.745c-.069.401-.25.79-.129.9.31.285.697.278 1.084-.052.108-.089.241-.158.39-.202.15-.044.31-.06.47-.05.318.149.79.505.937.414.37-.233 1.195.447 1.16-.647l.5.492 1.642-.402a1.67 1.67 0 0 1 .758.031c.243.069.452.191.6.351.13.11.379.097.576.136l.07-.472c.403 0 .86.038 1.323.058l-.335.647 1.462-.518.25.26.18-.39c.748.163 1.513.325 2.278.486l.086-.187c-.679-.428-.146-.531.224-.745.112 1.023 1.04.7 1.677.848.111 0 .31-.259.49-.414.198.337.456.544 1.058.395.36-.084.86.298 1.358.498l-.395-1.003c.163 0 .36-.058.619-.097l.12.408c.558.026 1.118.026 1.677 0 .541-.046 1.066-.227 1.6-.26.42-.06.856-.004 1.229.156.498.31 1.066-.427 1.496.155.145-.059.285-.124.421-.194l-.137-.188-.62-.142.104-.227 1.075.505.447-.511 1.315.88 1.505-.712v.816c.095-.122.222-.228.373-.312.152-.083.325-.142.509-.172.183-.03.373-.032.557-.004.184.027.359.083.513.164-.258.576-1.281-.233-1.453.648.189-.097.3-.162.413-.208.49-.187 1.263.201 1.453-.647 0-.084.473-.09.765-.136l.258-.511.146.039.052.55c.284-.104.541-.2.756-.272.258.11.542.24.86.401l.172-.725.25.596.859-.596.138.15-.92.983.095.136c.18-.142.344-.291.533-.414.189-.123.455-.246.739-.402l.241.434.43-.324v.784c.585-.266 1.101-.48 1.582-.738.095-.052 0-.343.112-.408.112-.065.335-.039.542.097l-.439.194c.06.065.086.123.112.123a9.514 9.514 0 0 1 2.055 0 3.197 3.197 0 0 0 1.548 0 4.691 4.691 0 0 1 1.547.09h.061c.421.227.859-.647 1.332.046.207.292.809.337 1.11.447l.946-1.295.214 1.004h-.584v.543l.146.104c.172-.2.447-.376.499-.596.103-.427.352-.343.696-.35a8.784 8.784 0 0 0 1.514-.239l.146.389c.395-.091.86-.499 1.066.375v-.854l1.488.485.601-.803.129.04v.647c.482-.052.912-.104 1.342-.156v-.175h-.533l.215-.524-.104-.065-.55.544c.052-1.295 0-1.295-.774-.99.327-.583.576-.609 1.032-.15.456.46 1.032 1.024 1.376 1.367h3.439l-.43.576h1.583l-.396-.214.387-.938c.086 1.126.714 1.346 1.677 1.094l-.447-.447h.859l-.171 1.049 1.049-1.295c.421.103.859.032.791-.596.67.26.679.648.713 1.12.267 0 .645.065 1.084.11a1.833 1.833 0 0 1 .026-.744c.16-.19.413-.325.705-.376.223-.038.481.085.808.15l-.817.304c.765.394 1.402.453 1.875-.337v.835h-.86l.077.2c.367-.168.746-.321 1.135-.459.207-.033.421-.033.628 0l-.31.408h1.109l-.464-.214V3.87c.267.024.529.07.783.136.236.108.458.234.662.375v-.608c.352.084.619.148.997.233l.215.446.335-.725c.19.648.602.648 1.041.609l.095-.214c-.207-.045-.413-.097-.68-.162l.766-.323.154.738.482-.596.146.53h.138l.18-.485h1.857l.198.719 1.109-.816c.215.363.86-.207 1.221.376 0 .09.86-.182 1.411-.311l.258.31c0-.18.086-.297 0-.368-.086-.072-.198-.318-.31-.318-.464 0-.937 0-1.402.052v-.2l1.892-.188.585.874-.37.181.103.155.938-.608.06.466c.37 0 .713.052 1.083.084l-.275-.44.129-.123.808.544-.051-.48h.782c.155-.02.307-.05.456-.09-.155-.065-.318-.136-.482-.194l-.137-.052c.301-.518-.095-.518-.636-.505l.808-.53.189.426.748-.22-.619-.375.095-.155c.292.032.584.064 1.023.116l-.774 1.424.739.279-.627.382c.516-.065.937-.143.593.472.267-.097.473-.116.55-.22.327-.414.748-.362 1.23-.33a3.866 3.866 0 0 0 1.023-.22l.181.401 1.109-.453c.284.181-.069.965.8.745l-.611-.33c.507-.078.86-.124 1.17-.169v-.181c-.112 0-.224 0-.482.052l.396-.797c.318.175.627.35.937.531l.12-.149c-.198-.22.619-1.055-.627-.647l.06-.44c-.86 0-.981-.091-.981-.557.254.025.504.066.749.123.191.06.359.156.49.278.275.24.516.518.791.764.092-.055.178-.116.258-.181l.765.473c-1.075-.091-1.187 0-1.109.647.37 0 .739.058 1.126.084l.207-.596.43.046.343-.693.749.356-.585.123c-.103.253-.112.48-.241.576-.3.192-.623.363-.963.512l.086.123a121.2 121.2 0 0 1 1.909-.531l-.301-.37.069-.083c.378.181.756.356 1.143.53l.086-.187c-.172-.058-.335-.123-.49-.175.155-.524.86.382.937-.35l-.541-.064v-.175c.292-.045.584-.097.86-.143.206.797.352.842 1.453.525l.507.498.189-.13c-.249-.316-.447-.828-.774-.905a20.74 20.74 0 0 0-2.734-.337l.206-.44c-.24.084-.533.18-.524.187.266.764-.525.195-.671.44 0 .059-.241.04-.361.059h-.542l.447-1.295.215.317.344-.401.112.647-.653.318.146.207c.223-.156.447-.324.688-.466.125-.09.274-.16.438-.201.619-.11 1.247-.181 1.858-.31.111 0 .18-.253.266-.383l1.522.298c-.223-.304-.361-.473-.473-.647a4.1 4.1 0 0 1-.198-.486l-.859.848c-.491.447-.946.207-1.402-.058l-.43-1.152 1.29-1.237.301.7-.525-.189c0 .078-.086.22-.077.227.327.123.653.233 1.109.388l.146.467 1.135-1.496c.413.117-.559 1.172.637.829h.43l.24.731c-.15.043-.305.073-.464.091-.224-.544-.559-.142-.748 0-.189.142 0 .382 0 .647 1.393-.556 1.616-.563 2.399-.064h-.903c.602.407 1.032.382 1.135-.059.103-.44 0-.744.06-1.126l.267.9.198-.052V.4c.117.096.216.205.292.323a.743.743 0 0 1-.103.33c.499 0 .937.052 1.367.078v.149l.662-.447-.172-.472v.2c-.387.072-.774.136-1.341.24l1.204-.868h.98l-.043-.394 1.169.712c0 .699-.722.2-.963.498.305.105.644.141.976.103.331-.038.641-.148.89-.316.301.414.559.537.86 0 .172-.285.524-.46.86-.091l-.361.777.258.466h-.723l-.06-.44-.567.479h-2.692c.112.149.138.213.164.213a6.961 6.961 0 0 1 1.676-.032c.405.097.662.207.86-.194.241.123.49.369.723.356.55 0 .18.427.404.544l-.628.22.163-.55-.163-.104c-.249.22-.507.434-.671.57l-.86-.531-.129.149.207.466c-.31 0-.568-.046-.808-.065l-.052-.447h-1.264l-.163.57c-.353-.11-.706-.214-1.032-.31l-1.006.297 1.135-1.016.748.187v-.42l-.972.084.344-.395-.206-.13-.929 1.205-.129-.11.447-.499h-2.39v.162l1.917.136-.172.647h-2.098c.148-.099.303-.192.465-.278l-.594-.738-.731 1.76c.387.053.783.098 1.17.143v-.226c-.25-.04-.499-.085-.748-.123V3.08h1.995c-.078.09-.155.278-.284.317-.219.03-.443.03-.662 0v.162c.323.067.642.147.954.24.138.045.232.187.344.284l.095-.537c.1.09.209.175.326.252.198.13.413.35.62.35.627-.017 1.253-.06 1.874-.13-.163-.563.378-.491.671-.491.92 0 1.84.084 2.76.129.126.007.252.007.378 0v.181c-.498 0-.997.052-1.556.084.929.57 1.831.091 2.717.143.886.052 1.109-.984 1.9-1.237l-.713-.576c-.112.175-.241.37-.37.59-.129-.402-.12-.83-.335-.965a4.119 4.119 0 0 0-1.282-.272l1.084-.855.094.078-.223.479 1.229-.31.611.4.249-1.43c.156-.056.317-.104.482-.143.576-.11 1.161-.246 1.341.557l.155-.42c.361.381 1.333.058 1.247.951l-.611-.343h-1.547c.369.608-.465.362-.723.693h2.726c.052 0 .095-.227.138-.344.197 0 .49-.07.567 0 .116.207.191.425.224.648l-.637.149.723.647h.705c.086-.252-.146-.86.688-.511l-.095-1.14c.267.078.559.156.86.233-.447.059-.482.421-.628.706.251.085.514.15.783.194.456.046.911.046 1.539.078l-1.307.867c-.241-1.029-1.092-.446-1.608-.699.292.55 1.427-.149 1.341.88.456 0 .86-.038 1.299-.051v.207a5.45 5.45 0 0 0-.808.071 5.32 5.32 0 0 0-.783.26l-.052.271c.387.123.774.26 1.161.376.231.082.478.134.731.155.243-.018.484-.047.722-.084.263.007.525.03.783.071l.043-.356c1.109.265 1.72-.084 1.986-1.217.172.214.404.401.37.46-.211.325-.446.64-.705.945l.077.35c.301.051.602.103.963.168l-.481-.382.533-.356.937.369.172-.687 1.213.188.094.648c.619-.77.765.233 1.221.103l-.206-.233 1.186-.382.086.389 1.333-.713c-.086.357-.266.784-.18.842.142.073.305.118.476.133.171.014.344-.002.504-.049l-.387-.414.129-.162 1.092.486c-.301-.557.447-.797.696-1.25-.016.194-.05.386-.103.576a5.178 5.178 0 0 1-.421.648c.57.059 1.144.09 1.72.09.154 0 .301-.233.533-.427a.33.33 0 0 1 .119.047c.034.023.061.05.079.083.171.4.412.284.679.103.16-.123.351-.221.562-.288a2.221 2.221 0 0 1 1.334 0c.212.067.403.165.563.288.146.11.378.117.568.168l.111-.492h.637c.223 0 .43.04.679.059l-.318.647c.585-.188.989-.324 1.444-.466l.301.337.164-.538c.756.175 1.496.35 2.235.525l.198-.11c-.774-.22-.438-.46-.172-.648l-.37-.24v-.129c.155.046.439.078.456.15.189.88.92.996 1.72 1.035.189 0 .387-.181.679-.324.039.07.096.132.168.183a.801.801 0 0 0 .251.119.953.953 0 0 0 .579-.023c.352-.091.859.278 1.35.472l-.379-.977c.155-.033.37-.072.619-.117l.172.537c.361-.362 1.247.538 1.239-.686l.249.44c.284.039.572.052.86.04a6.139 6.139 0 0 1 2.579.083c.078 0 .25-.058.293-.136.361-.692.713-.744 1.307-.174l.18.187.542-.595 1.324.874c.508-.447 1.342-.421 1.574.071.09-.12.214-.224.363-.305.149-.08.32-.135.5-.16a1.66 1.66 0 0 1 .544.014c.177.034.343.098.485.186-.293.563-1.213-.208-1.471.537a179.94 179.94 0 0 0 1.608-.227c.189-.647.404-.718 1.049-.46l.215-.763h.146v.725c.336-.123.602-.22.86-.317l.86.317.189-.764.241.647.86-.615.163.143c-.309.336-.619.647-.92 1.016l.06.097 1.333-.841.121.33c.404-.033.748-.058 1.135-.09-.069.491-1.058-.17-.542.724 1.487-1.295 3.242-.647 4.91-.718v.194c-.181.039-.361.084-.688.168l.748.725c.051-.446 0-.828.137-.97.138-.143.611-.085.912-.182.602-.188 1.204.414 1.806 0 .068-.052.344 0 .378.071.275.648.911.427 1.281.525l.912-1.23.206.996h-.576l.06.577c.267-.214.456-.382.671-.525a2 2 0 0 1 .584-.31c.473-.143.964-.24 1.505-.37l.172.415c.86-.266 1.625-.525 2.434.071l.782-.92v.739c.525-.136 1.187.22 1.453-.447l.86.492-.129.168c-.146 0-.284.059-.421.091l.172.155c.129-.148.266-.297.387-.453a.986.986 0 0 0 .086-.194l2.072.233s.086.045.129.039c.585-.097.585-.104.482.382h1.272l.069-1.088.516.7.155-.033-.155-1.068c-.482.052-1.015.103-1.72.175l.619-.55-.645-.078c.104-.117.267-.318.293-.305.567.298 1.006.046 1.436-.265 0 0 .12.045.18.071l.06.382-.49.058v.15l.559.265.043.731 1.213-.498.18 1.76.929-1.113 1.049.389-.138-.835.172-.059.439 1.14h1.057v-.136l-.541-.175c.052-.027.1-.058.146-.09.115-.152.247-.295.395-.428.201-.142.413-.274.637-.395l.249.499-.155.116c.181 0 .353.032.637.058l-.516.492c.713-.31 1.625.324 2.21-.427.06-.078.326 0 .507-.032l-.318.453h1.247l-.525-.272.103-.22c.456.168.912.343 1.367.518l.035-.136-.318-.084.249-.298c.378.032.654.052 1.006.078l.06.388.146.032.198-.647.155-.052.224.563c.271.203.578.377.911.518.344.071.701.102 1.058.091l.051-.99.215-.059.155.887 1.453.648-.215-.363.516-.142.748.86.207-.647c0 .738.636.492 1.074.615l-.584.447-.275-.291c-.405.22-.551.246-.62.13-.163.491-.163.478.43.647.086 0 .104.24.164.407l.619-.505-.069 1.082-.49-.279-.112.11.705.758.568-.071-.619-.486c.524-.052.86-.084 1.221-.117l.06-.453.782.648-.301-1.069.164-.084.43.564c.103 0 .301-.052.713-.124-.859.758-.103 1.05.353 1.418-.525.201-.86.195-1.135-.226-.103-.156-.43-.195-.714-.175l.576.298c-.189.116-.481.2-.559.369-.077.168.061.414.112.686-.369.11-.799.24-1.324.401h2.021l-.619.376.447.822c-.427.085-.81.266-1.098.518-.289.251-.469.563-.519.893.224.046.456.091.731.15v-.532l.232-.045c.345-.041.675-.134.972-.272.335-.226.524-.265.86 0 .335.266.653.544 1.212.253l-.447.46c.079.071.151.147.215.226-.456.427-.937.842-1.479 1.295l.267.647.146-.738.653 1.049c.172.298.172.304.912.097l-.069-.233 1.72-1.515h-.92l-.662-.803-.147.084V11.4l.164-.052.283.557c.439-.11.86-.175 1.153.324.077.13.567.57.86 0 0-.046.481.09.739.142v.2c-.198 0-.387 0-.602.04l.06.336-1.117.978h1.461v-.11c-.258-.059-.516-.11-.86-.188l1.049-.725v1.03h.817v-.104l-.584-.24v-.149c.235-.044.473-.078.713-.103.413 0 .86.097 1.092-.421 0-.097.43-.065.585-.084a2.197 2.197 0 0 0-.249.848c0 .116.43.175.67.259l.078-.207a23.074 23.074 0 0 0-.636-.26l.859-.57.25.771-.026-.026ZM46.931 2.614l-.765-.298-.292.511c-.086-.712-.31-1.165-1.153-1.133H43.39V1.1h-.164v.576h-3.388v.259h4.059c-.224.337.327 1.075-.542.796l.112-.466-.155-.09-.645.543c-.464.046-.86.078-1.298.117l-.043.479h-.98v.181l2.58.143-.138.466c.215.064.516.252.636.181.765-.473 1.849.155 2.502-.647.31-.355.647-.696 1.006-1.023.241-.376.241-.376.92-.182h1.23v-.13c-.18 0-.361-.038-.593-.07l.258-.473-.147-.175c-.18.124-.37.24-.567.35-.218.105-.452.19-.697.252-.249.041-.502.067-.756.078l.352.35ZM262.234 37.01a4.564 4.564 0 0 1 1.568-.467 4.979 4.979 0 0 1 1.682.092c-.318.285-.722.479-.722.647 0 .525-.344.505-.791.583.292-.719-.293-.648-.705-.648l.18-.362c-.481.2-.86.375-1.496.647.722.039 1.273.065 1.823.09v.143c-.387.084-.765.169-1.152.26v.168c.155-.046.309-.13.456-.117 1.212.136 2.459.42 3.387-.647l.147-.098c-.809-.233-.439-.776-.456-1.23h1.023v-.136h-2.218l-.043-.686c-.379.156-.49 1.004-1.006.291l-.783.493 1.092-.065.086.285c-.55.24-1.247 0-1.935.161.577.33.387.48-.137.596Zm25.796-7.05c.052.155.181.31.138.408-.164.388-.387.75-.663 1.256.74.045 1.23.078 1.78.11l-.653.647 1.281-.168c-.258-.136-.387-.2-.602-.304.164-.091.335-.246.413-.214.791.369.456-.207.481-.498l2.064-.175c-.98-.512-.086-.46.052-.648l-.129-.136c-.267.13-.542.26-.809.395l.043.207c-.283-.103-.773-.35-.859-.284-.516.576-.774.123-1.075-.227-.078.2-.086.414-.198.485a1.873 1.873 0 0 1-.611.137l.43.57c-.55-.079-.859-.124-1.221-.17l-.086-.22c.748.066.714-.258.594-.686a3.786 3.786 0 0 1-.069-.835l.215.091.653-.803c-.404-.103-.756-.317-.945-.226-.749.356-.903-.143-1.187-.648l-.086.602h-.576l.292-.822-.12-.123-.731.48.266.815h1.497l-.293.75c.124-.179.277-.346.456-.498.112-.064.284-.045.43-.064l-.172.796Zm-3.99 3.548-.86.841.146.13c.39-.282.83-.522 1.307-.712a5.887 5.887 0 0 1 1.436 0v.2c-.765 0-.421.415-.421.712.31-.297.499-.757.86-.88.472-.09.965-.103 1.445-.039l.266-.77c-.464 0-.972.039-1.548.064l-.352-.53c-.43.731-1.221.336-1.772.498l-.172.395-.98-.855-.06.583c-.352-.065-.696-.123-1.126-.2v.647a28.15 28.15 0 0 0 1.831-.084ZM180.366 2.665l-1.015.11-.086.583c-.387.181-.86-.447-1.135.22l1.152.11v.143c-.223 0-.455.052-.722.077.006.125-.012.249-.052.37a1.26 1.26 0 0 1-.232.284c.972-.388 1.092-.414 1.41-.207 0-.99 0-.99.645-.647l-.352.123c.215.149.456.22.602.136.756-.415.584-1.088.473-1.742-.25 0-.533 0-.86-.052l.43-.492h-.955l.697.984Zm-132.652.739v.18c.387 0 .782.06 1.083.085l-1.006.81.12.161c.508 0 .86-.932 1.445-.188V3.158c.301.09.731-.57 1.178 0-.24.058-.456.103-.73.161l.352.525c1.006-.33.516-1.036.516-1.632h-.86l.473-.55c-.361 0-.585 0-.912.052l.602.932c-.352.065-.67.117-.946.168l-.129.596-1.186-.006ZM11.35 32.64c-.198 0-.404-.039-.654-.065l.25-.647.36.647 1.23-1.055-.128-.058c.378-.058.748-.123 1.04-.168l.49.563.155-.11c-.118-.322-.38-.603-.743-.795a2.401 2.401 0 0 0-1.243-.26l.473.168c-.517.078-.92.136-1.325.188v.246c.267 0 .542.032.86.058-.43.75-1.058.142-1.522.265-.206 1.12-.086 1.321.757 1.023ZM183.324 4.103l.326-1.431h-2.02v.162l.61.188v.168h-.705c0 .932 1.041 0 1.221.57l-.576.343h1.144Zm97.208 10.72h-.998c.534.33 1.015.57.585 1.114a.896.896 0 0 1 .312.129.63.63 0 0 1 .205.218.468.468 0 0 1-.044.52c-.192.302-.361.611-.507.927l.241.077.223-.615c.404 0 .817-.058 1.221-.084l.086-.123-.671-.272-.369-1.398c-.104 0-.284 0-.482-.046l.198-.446Zm13.947 24.712c.567.686-.215.395-.361.53.077 1.237.997.648 1.591.648l.189.48h.103v-.428l.61.11v-.181c-.619-.42-1.384-.136-2.227-.117l.611-.822.137.058v.609l.964-.732-.095-.155h-1.522ZM10.051 13.438a4.57 4.57 0 0 1-.8 1.191c-.507.395-.223.609.121 1.056l1.505-1.82-.826-.427Zm42.435-10.3-.524.965h.86l.36-1.431h-1.951v.162l1.255.304Zm226.67 25.19c.283.045.571.069.86.072a.756.756 0 0 0 .257-.076.554.554 0 0 0 .19-.15.393.393 0 0 0-.018-.21.485.485 0 0 0-.128-.186 2.212 2.212 0 0 0-.955-.138c-.33.024-.643.12-.902.274l-.989-.149v.117c.206.045.421.097.748.162l-.499.246.06.142 1.316-.44.06.336Zm-34.171 14.45.051 1.088c.164-.272.25-.583.396-.608.662-.117.447-.596.387-.88-.06-.286-.447-.305-.697-.448v.24c-.257.162-.515.317-.859.537.258.013.438.04.722.072Zm18.375-.44c.49.285.645.22.766-.181 0-.104.206-.246.309-.246.215.036.423.093.619.168a2.117 2.117 0 0 0-.318.246c-.079.12-.148.243-.206.37l.163.084.645-.952v-.253c-.645.26-.714 0-.671-.388-.541 0-1.014.045-1.479.071v.207l1.135-.058v.22c-.206.039-.421.071-.696.117l.206.505a5.192 5.192 0 0 1-.473.09Zm28.883-3.12c-.799-.311-1.651.09-2.399-.343l-.404.705c.55 0 1.006.059 1.462.078 0-.693.567-.356.929-.388.163-.013.275-.033.412-.052Zm-35.108.608c.206 0 .413-.045.774-.09l-.447 1.295c.215-.123.464-.182.55-.33.176-.313.325-.633.447-.959l-.404-.181c.117-.13.224-.267.318-.408.12-.2.215-.42.327-.647l-.129-.084-1.436 1.404Zm11.771-3.496c-.326 0-.593 0-.859-.038v-.104l.859-.155c-.309-.11-.627-.091-.859-.208a2.334 2.334 0 0 1-.568-.556l-.112.097.353.79-.516.323.06.181c.413-.051.86-.103 1.307-.168l-.189.57c.395-.058.395-.058.524-.732Zm15.366 2.59a5.037 5.037 0 0 0-.688.822c-.215.408-.455.317-.748.117l-.369-.272a.976.976 0 0 0-.104.207c.155.117.327.272.508.291a8.626 8.626 0 0 1 1.298 0c.533.13.697-.077.8-.453l-.155-.149-.542.525V38.92ZM13.07 28.879v.24l3.06.135v-.246c-1.014-.55-2.063.059-3.06-.13Zm278.752 11.316.052.22c-.293.04-.585.078-1.015.143.335.13.533.214.8.317l.567-.822-.714-.142.577-.26c-.276-.032-.714-.051-.731 0-.138.512-.533.324-.86.324h-1.324v.188l2.648.032ZM272.741 8.66l.061.648c.627-.913 1.16-.99 1.625-.35l.37-.498a12.203 12.203 0 0 0-1.634-.065c-.258 0-.387-.719-.688-.078a2.53 2.53 0 0 1-.258.343h.524Zm14.618 21.947c-1.255-.395-1.324-.369-1.393.376-.137-.032-.266-.071-.404-.11v.2h1.72v-.213c-.129-.039-.25-.084-.525-.175l.602-.078ZM179.171 1.785c-.86-.285-1.471-.194-1.522.233l.73-.116.052.123-.722.446c.212.036.428.06.645.071.223 0 .438-.058.662-.077.223-.02.378 0 .567 0v-.136h-.688l.276-.544Zm98.936 33.665.06.181 2.58-.136v-.181c-.379-.11-.774-.33-1.135-.298a7.767 7.767 0 0 0-1.505.382v.052Zm-23.139 6.52 1.462.724v-.492c-.164.04-.318.072-.662.156l.404-.725-.817-.357.524-.46c-.808.26-.808.26-.404 1.101-.103.007-.223.007-.507.052Zm25.409-2.895-.301-.213c-.155.291-.292.595-.456.887a.746.746 0 0 1-.301.252c-.206.13-.438.233-.662.35l.069.116 2.09-.75c-.353-.124-.602-.214-.86-.298l-.06-.175c.163-.059.326-.11.481-.169Zm-7.016-27.967c.335.097.67.317.911.252s.593-.395.86-.647h-1.72l-.051.395ZM16.208 21.712c-.24.24-.499.382-.516.55-.017.169.224.33.344.492.174-.205.324-.422.447-.647a.839.839 0 0 0 0-.544c0-.097-.215-.181-.352-.226-.138-.046-.146.07-.207.103l.284.272ZM285.7 28.736h-1.557a5.232 5.232 0 0 0-.782.078c-.095 0-.181.104-.275.155.111.046.215.13.326.13.267 0 .602-.162.8-.071.619.291.989-.227 1.488-.292Zm-11.763 8.947v.648l.602-.356-.473-.292.627-.161a1.551 1.551 0 0 0-1.187.065 1.044 1.044 0 0 0-.407.348.714.714 0 0 0-.125.454l.963-.706ZM11.677 21.596l.172-.726c-.327 0-.671.059-1.04.091l-.19.706c.456-.033.808-.052 1.058-.072ZM288.15 27.13c-.146 0-.326.039-.352.039l-.043.764 1.057.582.155-.278-.473-.181-.344-.926Zm-19.252 1.372.266.758c.422-.37.74-.648.912-.81l-.327-.466-.851.518Zm-1.419.79c-.069-.44-.507-.647-.946-.375-.438.271-.628.414-.937.647h1.152l.31-.59.421.318Zm7.98-15.039c-.594.045-1.075.078-1.617.11l.37.706.086-.033-.103-.401.163-.071.353.55.086-.039-.121-.55.172-.058.284.466.327-.68ZM163.323.801l-.997-.719c.473.648-.379.454-.628.732.335.039.671 0 .765.103.508.635.654.123.86-.116ZM47.241 3.481c-.146.576-.146.576.103.997.087-.197.145-.401.172-.608a5.407 5.407 0 0 0-.155-.706 2.382 2.382 0 0 1 0-.427l-1.092.841c.473-.045.748-.07 1.015-.097h-.043Zm215.285 37.206h-1.29l.585.57c-.559-.045-.911-.065-1.272-.09l.206.647 1.771-1.127ZM17.094 42.293l-.258.175.266 1.133c.293 0 .56-.065.723-.084l-.731-1.224Zm248.502-6.688 1.462-.077v-.162l-1.006-.059c0-.511 0-.511-.714-.343l.258.641Zm-6.088 3.082-.731.874.121.078.808-.564.447.46.086-.078-.172-.725c-.146-.045-.361-.045-.559-.045Zm-245.174-6.41v-.206a4.171 4.171 0 0 0-.61-.033c-.078.408-.113.822-.156 1.237h.284l.12-.926.362-.071Zm247.565 5.057h-.86v.116c.172.052.344.097.645.175l-.774.408v.117h.705l.284-.816ZM273.18 17.2c-.997-.46-1.445-.35-2.107.505.284-.13.473-.415.731-.48a6.696 6.696 0 0 1 1.376-.025Zm-3.543 21.908-.068.155c.369.207.739.414 1.195.648v-.72c-.439-.032-.8-.057-1.127-.083Zm-8.065-3.237h-.533l-.147.498c-.378 0-.687-.039-.997-.058.714.388 1.367.343 1.651-.473l.026.033Zm13.861-22.99v.408h.129l.387-.718-1.608.103v.182l1.092.026Zm.481 3.199a4.872 4.872 0 0 0-.679-.648c-.12-.077-.361 0-.542 0 .499.097.473 1.243 1.221.648Zm-10.972 24.05c.86.72 1.135-.284 1.651-.55-.541.182-1.083.356-1.651.55Zm18.574-11.802c.206 0 .464.11.533.04.361-.363 1.083-.5 1.023-1.095l-1.556 1.055Zm-6.14 5.095c.697-.045 1.238-.084 1.72-.116-.344-.175-.645-.33-.86-.466a3.27 3.27 0 0 1-.327.272c-.112.097-.266.175-.533.31Zm11.66-6.221h-.181l.465.751.241-1.295-.396.058-.129.486Zm-31.179 13.887-.163 1.049.86-.648a5.486 5.486 0 0 0-.697-.401Zm27.654-11.2v.22c.636 0 1.281-.071 1.926-.104v-.116h-1.926Zm-2.898-1.528-1.23-.751v.75h1.23Z"/><path d="m251.579 2.38.438-.342c-.309 0-.533-.04-.765-.059l.086.156-.791.466-.146-.13.215-.414c-.25 0-.473-.039-.723-.058l.215.343c-.206.052-.421.11-.533.136l-.456-.803-.12.11c.086 0 .163-.039.241-.188-.207 0-.482-.077-.594 0-.344.292-.602.492-.954 0-.069-.103-.396-.064-.611-.064h-2.055v.187c.31 0 .611 0 .989.059-.275.407-.713.854.327 1.12l-.86.382-.172-1.14-.757-.479-.051-.233c-.439.35-.86.693-1.359 1.062l-.189-.978c-.37.648-.765 1.068-1.565.868l.516-.182-.705-.174V.937h-.163v.492c-.327.265-.602.518-.912.738a1.795 1.795 0 0 1-.911.369c.163-.175.344-.337.49-.524a.238.238 0 0 0 .008-.142.278.278 0 0 0-.077-.13.36.36 0 0 0-.166-.011.31.31 0 0 0-.144.062 1.244 1.244 0 0 0-.189.363c-.06-.058-.189-.116-.18-.162-.007-.193.04-.385.137-.563.227-.248.48-.482.757-.7l.138.959.154.065.86-1.192c-.232 0-.387-.045-.576-.064v.738c-.172-.253-.309-.37-.292-.447.089-.22.195-.437.318-.647l.232.064-.069-.692-1.582 1.54s-.215-.058-.456-.129c.619-.583 1.221-1.133 1.815-1.683.507-.311.249.997.98.479l.516.693c-.602.466-.602.479.249 1.061l-.585.182.086.129h.387l1.17-1.1.069.453 1.573.123.069-.11-.568-.408.233-1.217c.859.647 1.092 0 1.513-.447l-.052.764 1.118-.466c0 .097.164.362.095.414-.338.245-.71.462-1.109.647l-.362-.369-.859.609c.189.136.421.42.696.453.275.033.645-.155 1.049-.272l.215.389.129-.046a1.416 1.416 0 0 1 0-.647c.112-.194.387-.317.654-.518l.189.524c.198-.168.352-.369.55-.427.198-.058.404.065.482.084a4.548 4.548 0 0 1-.491.576.55.55 0 0 1-.232.112.679.679 0 0 1-.275.005c-.163-.058-.275-.259-.516-.511 0 .271 0 .556.121.647a.765.765 0 0 0 .279.148.95.95 0 0 0 .661-.047.663.663 0 0 0 .238-.185c.541-.602.567-.123.739.136h1.453v-.084L250.22.84V.704l1.298-.402c.129.292.439.609-.223.784-.103 0-.112.324-.189.563h1.479c.111-1.055 1.092-.2 1.565-.647a74.652 74.652 0 0 1-1.221-.227l1.006-.53c-.19.543.189.44.464.316.069.233.12.59.18.59.43 0 .731.161.534.543-.086.175-.525.195-.8.285l-.069-.2.533-.234c-.696-.246-.756-.213-.799.298l-.688.162-.155-.142c.241-.078.481-.15.722-.22l-.172-.182-.774-.168c0 .382.129.816-.516.686l-.103.428a2.24 2.24 0 0 1-.713-.026ZM115.522 1.785l-.275.88.103.033.86-1.055c.138.511.404.977-.413.932.078.518-.533.557-.713.932l-.224-1.47-.542-.07c-.369-.324.637-1.12-.387-1.153l1.72-1.632-.051.648 1.074-.434c.276.278-.292 1.068-.92 1.081h-1.16l-.138.162c.241.181.464.473.731.512.266.038.628-.143 1.04-.253l.224.395c-.052-.647 0-1.094.86-1.12l.189.447.438-.531.241.142a5.168 5.168 0 0 1-.576.712s-.335-.207-.61-.382c0 .123-.052.402.051.467a.92.92 0 0 0 .334.136c.124.024.254.027.38.006a10.75 10.75 0 0 0 1.324-.647l-.086.543h1.617c-.379-.103-.594-.168-.809-.226V.736c.413-.13.86-.252 1.29-.395.06.24.456.518-.155.732-.111.039-.197.285-.18.42.017.137.241.201.378.208.466.008.931.036 1.393.084-.499.447-1.135.149-1.616.35l-.86.466-.138-.162c.086-.097.164-.2.31-.389-.318 0-.551-.032-.809-.045.448.764-.309.324-.412.414l-.25-.828a6.97 6.97 0 0 1-.731.2c-.163 0-.421.085-.498 0-.396-.4-.86-.258-1.342-.233a8.135 8.135 0 0 0-1.616.143l.954.084ZM145.576 1.837v-.473l-1.272-.693.92-.874c-.473-.058-.714-.084-1.101-.129.292-.162.482-.259.86-.453-.542-.058-.86-.097-1.238-.136v-.162h1.84l-.697.408.809.777c.421-.046.739-.078 1.066-.117v.169l-1.118.608-.284-.57c-.163.272-.163.272.473 1.095l.86-.402.129.2-.499.28c.465.096.972-.13 1.213-.648a1.8 1.8 0 0 0-.069-.77c.086 0 .31.051.533.097l.129-.117-.542-.563c.181 0 .344 0 .576-.046l-.206-.433c.335.647 1.195.207 1.642.576v.213c-.412.033-.859.072-1.272.11l.576.298-.37-.304-.722.55.456.434-.447-.097-.069.123c.137.078.275.214.412.22.938 0 1.866 0 2.804.058.204.03.401.082.584.156l.68-.37L151.75.6l.55-.343c-.378.033-.576.045-.859.071l.146-.543c.455.22.997.336 1.255.647.178.387.265.795.258 1.204-1.72.24-3.362-.116-5.039.084l.043-.278c-.86.123-1.719.252-2.64.382l.112.013ZM137.459.924l-.697-.22.052-.596c.963 0 1.926-.064 2.889-.084.189.018.374.055.55.11l-.043.181h-.541V.49l.988.065c.422.958 1.436.2 2.184.324h-1.719l.069-.169-.568-.647h.86l-.138.447.164.038.077-.705c.224.032.421.065.662.103v-.615h.198l.138 1.004.378-.376.576 1.295h-1.565l.086.537h-3.173l-.37-.524-.154.065.06.453c-.645 0-1.273.058-1.944.084l.267.48h-1.023c1.238-1.043 1.238-1.043 1.909-.648l-.19-.784 2.038.37-.154-.797h-1.952l.086.434ZM112.77.743l.129.647.619-.362.473.362-1.281 1.165-.181-1.048c-.387.647-.748 1.1-1.556.874.181-.052.353-.097.567-.162a1.463 1.463 0 0 0-.551-.041 1.335 1.335 0 0 0-.51.163.931.931 0 0 0-.343.328.665.665 0 0 0-.092.41c-.301-.252-.275-.452.095-.757.37-.304.963-.699.499-1.372v.583c-.774.11-.86 1.152-1.815 1.035l.671-.86c-.353.064-.507.051-.585.116a.91.91 0 0 0-.197.35c-.078-.078-.215-.156-.207-.22a.854.854 0 0 1 .164-.486c.233-.228.486-.444.756-.648l.129.88.155.085.86-1.191c-.275 0-.43 0-.585-.039v.537h-.198c-.043-.272-.43-.55.25-.79.326-.116.576-.433.86-.647l.524.764c-.782.33-.473.647.206.926l-.533.446h.757l-.103-.142 1.023-.906ZM292.184 42.131v-.039l.86-.116v.252h-.456v.11c.387.084.774.169 1.161.246l-.765 1.03 1.075-.195.137.434c-.679.039-1.315.084-1.892.117l-.343-.648-.172.078.258.395c-.155.324-1.436.272-2.15-.058l.55-.324v-.11l-.782.058.197.648c-.533-.272-.653-.505-.344-.836a84.76 84.76 0 0 1 1.118-.259l-.266-.563c.55-.175 1.324.745 1.814-.22ZM.636 29.287c.205-.25.438-.486.696-.706.465-.324.766-.104.912.324.146.427.275.401.645.291.37-.11.696-.039 1.04-.11.172-.032.327-.181.482-.285.154-.103.3-.233.455-.35l.147.123c-.181.33-.284.874-.55.959a4.08 4.08 0 0 1-2.099.213c-.507-.142-.499 0-.688.26-.16.171-.348.328-.559.465l-1.203-1.385.404-.537.318.738ZM7.557 18.902c-.817-.032-.662-1.476-1.806-.77l-.043-.719c-.533-.265-.954-.466-1.367-.686a.266.266 0 0 1-.077-.233c.351-.33.749-.629 1.186-.893.164-.085.55 0 .723.161a.698.698 0 0 1 .111.648c-.129.44-.172.783.336 1.087.419.298.78.638 1.075 1.01.051.033-.086.246-.138.395ZM290.017 15.38l-.731.745h1.066l-1.264.783-.112-.168.439-.304a61.193 61.193 0 0 1-1.178-.123l1.255-.868c-.576 0-1.066.052-1.548.078.078-.453.654-.647 1.393-.395l.078-.155-.723-.389c.559-.065 1.015-.123 1.471-.175l.043.175c-.181.046-.353.097-.533.143.223.582 1.719-.091 1.212 1.146.258.064.456.116.86.226l-.937.434.327.207c-.267 0-.671.039-1.127.065.069-.395.86-.188.654-.648a4.124 4.124 0 0 0-.645-.777ZM267.204.115a15.256 15.256 0 0 1 1.883 0c.326.039.92-.337.989.362 0 .04.154.078.24.097l1.092.195c.155.11.31.31.473.31.453-.006.904-.039 1.35-.097V.756h-1.874l.559-.44v-.434c.335 0 .627.064.774.084l1.289 1.295h-2.811c-.138 0-.258-.285-.405-.473h-.859c-.319-.369-.611-.647-1.187-.272-.198.11-.636-.116-.963-.188l.163.162-.696.44-.017-.815ZM7.24 14.163c.172.052.335.104.507.15a.858.858 0 0 1-.077.155c-.327-.052-.86-.033-.93-.182a9.263 9.263 0 0 1-.558-1.942c.025-.25.103-.494.232-.725-.507.227-1.032.544-1.496-.233.41-.165.855-.274 1.316-.324.645.033.696.615.773 1.056.12.673.155 1.32.233 2.045Z"/><path d="M269.982.769c.559.925 1.72.615 2.579.835l-.06.188h-2.304v.142c.344.071.679.149.989.22l.077.926-.525-.719c-.352.052-.773.117-1.195.181v.136h.637v.188h-2.881c.456-.285 1.118-.065 1.41-.647 0-.078.516.039.791 0 .159-.02.312-.056.456-.11v-.175c-.258 0-.525-.052-.86-.09l.378-.363.508-.712ZM231.804-.293c.206.032.455.078.816.136l-1.152.945c.25.181.516.499.86.602.344.104.611-.097.688-.53 0-.227.482-.39.86-.506a54.58 54.58 0 0 1-1.29 1.8c-.095.104-.473 0-.748-.116.189-.085.378-.175.593-.266-.584-.427-.679.253-1.023.363-.395-.732-.8-.26-1.238.11-.086-1.23 1.419-1.444 1.634-2.538ZM101.849 1.584c-.258.13-.507.266-.86.428-.412-.577-.86-.175-1.28.168C99.57.956 101.16.8 101.341-.267l.817.13-1.144.912c.267.194.542.512.903.647.361.136.55-.123.653-.517.061-.246.482-.415.74-.648l.155.13-.559.537a.748.748 0 0 0-.215.31c-.164.693-.525.952-1.385.868l.654-.317-.112-.2ZM289.501 43.173c-.361.059-.722.123-1.281.214.404.162.67.278.937.389v.09c-.224 0-.439.039-.662.045a9.553 9.553 0 0 0-1.617.059 1.45 1.45 0 0 1-.517.007 1.269 1.269 0 0 1-.464-.172.887.887 0 0 1-.309-.312.65.65 0 0 1-.086-.384c0-.078.241-.201.379-.214.32-.017.642-.017.963 0l.051.576h1.196l-.671-.427 1.006-.725.155.2-.482.292c.241.337.241.337.938-.2l.455.562h.009ZM190.228 2.277l-.094-.887c.241-.052.49-.11.748-.168l.275 1.295a1.66 1.66 0 0 1-.969.073 1.44 1.44 0 0 1-.438-.178 1.066 1.066 0 0 1-.313-.29l-.378.453-.095-.99c-.483.074-.976.109-1.47.103-.438-.039-1.032.227-1.307-.291.8-.091 1.582-.201 2.365-.26.215 0 .627.098.627.162.009.564.577.641 1.049.978ZM124.708 1.843l.602.175-.336.505.568 1.062.86-.492v-.79l.989-.155.051.103-.645.31.456.292c-.364.2-.711.416-1.04.648-.107.14-.179.293-.215.453-.232.103-.465.207-.697.317l-.163-1.295c-.507.052-1.066.117-1.797.194l.756-.57c-.283 0-.49-.051-.688-.077v-.149c.198 0 .473-.149.585-.071.456.31.619-.227.946-.22l-.146-.22-.086-.02ZM153.555 1.856c.292.292.593.486 1.058.227.137-.071.395.045.593.078v.22c-.224.045-.447.09-.576.123l-.344 1.476h-.241l.069-1.062a7.406 7.406 0 0 1-.989.81 3.02 3.02 0 0 1-.86.252l-.051-.266h.541l.232-.647-.103-.143-.576.376-.043-1.515.912 1.198.911-.492-.671-.188.138-.427v-.02ZM261.433 1.604c.413-.279.619-.855 1.315-.408.19.123.628-.071.946-.123l.052.175a2.717 2.717 0 0 1-.662.214v.187a3.22 3.22 0 0 0 .782-.181c.276-.196.524-.413.74-.648l.369.965-.189.11-.309-.518c.06 0-1.462.518-1.462.518l-.473.304-.249-.343c-.061.114-.113.231-.155.35-.077.213-.138.434-.224.731l-.619-.24c.602-.232.68-.582.138-1.093ZM17.901 8.512l1.256.077v-.595c.18.42 1.238-.033.928.815h-1.53v.214l2.167.052v.298h-2.46c-.077 0-.137-.279-.206-.428l-1.926.609.103-.907h.112l.137.525c.259-.054.51-.128.748-.22.26-.134.504-.283.731-.447l-.06.007ZM133.518 1.254l-.937.233c.636.214 1.548-.356 1.651-1.003.172.064.344.123.507.187a3.594 3.594 0 0 0-.645.648c-.369.647-1.032.518-1.625.589-.112 0-.206.194-.327.317l-.266-.485-.361.777-.404-.972c.335-.18.49-.854 1.203-.375.129.084.447-.09.688-.104.112.013.232.072.516.188ZM238.683 1.545l-.439.26.439.168h-.714l-.069-.797-.937.946c-.353-.395-.748-.531-1.238.064-.104-.595.782-.958-.086-1.437l.464-.181.481.816 1.342-.79.757.951ZM105.332 1.785l.31-1.159.498.945.189-.297c.413-.246.86-.499 1.196-.706l.722.92-.31.342.155.117h-.559l-.111-.81-.731.849-1.359-.201ZM293.498 20.223l1.29.337c-.791.194-.507.738-.49 1.223-.336.078-.714.453-.86-.272 0-.174-.628-.265-1.075-.44l1.135-.848ZM97.102 1.241c-.164-.336-.344-.55-.31-.731.035-.182.353-.182.55-.272l.07.22-.5.078V.67l1.041.136v.117l-.722.142c.653.253 1.17.454 1.823.7l-.86.776c.326-.984-.18-.86-.68-.835h-1.917l-.12-.272 1.324-.11-.55-.524.438.719.413-.279ZM71.704.192l.558 1.295h-.31l.611.978c-1.195.472-2.012.207-1.995-.563l.86.57.12-2.383.156.103ZM202.179.005l.447-.162.276.647-.069.078-.473-.395a1.705 1.705 0 0 0-.086.751c.069.207.327.363.585.647h-.447l-.121.648c.215.116.43.24.8.434-1.668.297-2.167.116-2.064-.596l.86.647V.444c0-.122.206-.232.31-.349l-.018-.09ZM198.2 3.138l-2.236.253v-.266c.456-.11.86-.226 1.41-.356-.25-.138-.429-.338-.504-.565a.784.784 0 0 1 .091-.678c.078-.078.327-.142.37-.097.12.156.212.324.275.498l.662.052c-.627 1.043-.627 1.043 0 1.16h-.068Z"/><path d="M136.812.108c-.207.376-.946.084-.98.648-.215-.04-.516 0-.637-.13-.258-.272-1.204-.537-1.281-.291-.224.686-.808.362-1.221.498-.064.02-.13.034-.198.046-.086-.874-.069-.9.86-.823l-.619.382c.267.052.482.098.697.143l-.061-.156c.318-.18.628-.466.955-.498.394.015.78.09 1.135.22.481 0 .92 0 1.367-.052l-.017.013ZM54.568 1.19c-.164-.072-.327-.15-.49-.214-.164-.065-.327-.123-.49-.188l.051-.2c-.37-.04-.748-.078-1.083-.117l.111-1.062c.748.324 1.497.647 2.245.958-.12.046-.319.11-.714.24.413.064.61.097 1.006.162l-.645.382.009.038ZM67.215 3.3H66.14l.86-.693h-1.427c.163-.13.267-.194.353-.272l.524-.55.353-.401.42.543c.061 0 .31 0 .551.04L67.215 3.3ZM267.204.115c-.315.233-.651.45-1.006.647a.663.663 0 0 1-.284.028.592.592 0 0 1-.258-.093c-.662-.576-.774-.543-1.513 0-.31.201-.86.15-1.238.214-.043-.926 0-.945.782-.777-.198.117-.335.207-.499.31.061.033.121.104.164.092.198 0 .464 0 .576-.156.327-.343 1.324-.595 1.72-.356.111.065.129.253.111.207.542 0 .989-.064 1.436-.097l.009-.02ZM184.973 1.209c-.25-.09-.49-.188-.86-.337l-.06-.317c-.387 0-.74-.052-1.092-.078 0-.511.808-.2.705-.725h1.41l.043.13c-.198.07-.396.149-.602.226v.117l.86.039V.36l-.722.278.945.149-.627.408v.013ZM269.456 1.448c-.206-.045-.413-.084-.697-.142l.078.511c-.645 0-1.29.059-1.935.085l.232.517c-.378 0-.67-.038-.989-.058l.912-.97-.447-.104c.43-.33.86-.195 1.29.343l.051-.648.164-.162.257.298a5.63 5.63 0 0 1 .8 0c.095 0 .155.2.232.304l.052.026ZM274.487 5.67l1.126-1.859.766.564-.68.233c.344.123.585.207.86.298l-.051.168h-.68l.86.608c-.464.097-.808-.647-1.075.097l-.154-.757c-.404.175-.103 1.03-.972.647ZM153.555 1.876c.335-.356.085-1.211 1.083-1.069l-.766-.323c.662.181 1.436-.926 1.952.11-.292.077-.593.162-.86.24v.155h1.041l-.731.796-.12-.647c-.577.259-1.084.498-1.6.731l.001.007ZM4.11 16.792l.37 1.152.224-.699.688.498-.086 1.095-.215.051-1.6-1.456.387-.557.232-.084ZM140.777 2.342l-1.616.09v.162h.636v.169l-2.812.116v-.065a8.623 8.623 0 0 1 1.798-.712 9.454 9.454 0 0 1 2.003 0l-.009.24ZM140.707-.274h-3.147v-.2c.163-.065.326-.136.49-.208v-.123l-1.135-.136v-.136c.206 0 .412-.038.61-.038h1.376c.335.893 1.144.433 1.72.53.043 0 .077.046.12.072l-.034.24ZM124.724 1.824l-.86.188-.061-.169c.172-.09.336-.187.499-.278l-.129-.2-.713.42.094.123c-.223.052-.447.104-.86.188l.551-.531-.568-.26v-.129h.903v-.123c-.344-.064-.688-.129-1.152-.22l1.032-.537c0 .369.129.583.447.434.137.168.258.46.412.479.508.065.413.343.353.647l.052-.032ZM295.433 43.866c.195-.259.425-.502.688-.725.1-.055.215-.094.336-.115a1.23 1.23 0 0 1 .369-.008 3.6 3.6 0 0 1 .791.291l.034.557h-2.218ZM63.648 2.834l-.06-1.392h.155l.19.518c.238-.066.468-.149.687-.246.112-.058.18-.207.275-.311.06.13.18.272.155.382a.677.677 0 0 1-.292.388c-.241.175-.576.266-.774.467a1.641 1.641 0 0 0-.12.731h-.757c0-.116-.043-.298 0-.337a2.73 2.73 0 0 1 .541-.2ZM195.5 2.07c-.971.259-1.272.57-1.135 1.25l-.859.038.068-.647.542.356-.146-1.632h.206l-.077.609c.37-.136.662-.22.929-.343.111-.058.163-.207.24-.31.069.148.147.297.198.446a.642.642 0 0 1 .034.233ZM68.428 1.7c-.275-.044-.56-.09-.86-.142l-.439-.86c.447-.162.482-.137.56.343 0 .077.335.213.438.168.236-.154.49-.293.756-.415l-.257.525h2.055v.259h-1.23a3.48 3.48 0 0 0-.559.13l-.464-.007ZM56.14 2.316l-.242.343-.137-.13c.146-.174.283-.466.464-.498.452-.052.911-.065 1.367-.039.146 0 .318-.039.43 0a.604.604 0 0 1 .301.31c0 .079-.112.286-.189.292-.49.048-.985.063-1.479.046-.163 0-.318-.208-.516-.324ZM278.4 14.241v.583l-.224.039-.086-.538a1.704 1.704 0 0 0-.198-.783l.344-.706.619-.084c.052.557.835 1.269-.455 1.489ZM158.371 1.183l-1.479.647.25-.453-.946-.24V.912h1.659V.749c-.206-.045-.404-.097-.61-.142V.45h1.926a5.283 5.283 0 0 1-.654.272 2.737 2.737 0 0 1-.464.065l.318.395ZM106.09-1.374v1.036l.146.032.344-.647.456.22c-.395.401-.757.776-1.273 1.294l.069-1.08-1.221 1.055a1.32 1.32 0 0 1 .112-.486c.439-.492.912-.958 1.367-1.424ZM72.587-.358c.636.181 1.204.401 1.204-.453 0-.078.507-.162.782-.246l.104.246c-.233.09-.465.181-.731.291.198.518-.155.648-.86.466l.052 1.25a.623.623 0 0 1-.078.35h-.258a2.269 2.269 0 0 1-.069-.357L72.45.302c.08-.009.161-.022.24-.038l-.103-.622ZM145.446 2.057h1.582v.278c-.387 0-.774.04-1.161.052v.181c.559 0 1.126.059 1.72.091v.188h-3.293l.67-.363-.559-.226.078-.182 1.221.577-.164-.603-.094.007ZM258.287 1.681h1.72c.285-.031.575-.031.86 0 .206.046.378.214.567.324-.189.296-.404.581-.644.855-.061.064-.327-.04-.602-.078l.92-.712c-.611.252-1.428-.648-1.858.246l-.963-.635ZM205.438 2.562c-.438.039-.731.078-1.023.084a10.561 10.561 0 0 1-.86-.052l-.112.57h-.12l-.163-1.243.206-.136.198.563.722-.563c.37.246.679.466 1.152.777Z"/><path d="M145.455 2.05c-.542-.543-1.247-.226-1.875-.278-.401-.014-.803-.01-1.204.013v-.207c.422-.045.92 0 1.23-.168.31-.169.653-.603 1.419-.324-.387.155-.602.24-.731.285.395.149.86.317 1.324.485l-.12.233-.043-.039ZM60.69 1.338c-.154.182-.094.7-.601.318l1.006.854c-.637 0-1.178.052-1.763.071l-.293-.705.86.317-.206-.842h.998v-.013ZM105.212.814l-.508.932c-.18.337-.361.272-.67.071a3.223 3.223 0 0 0-.98-.272v-.18c.627-.17 1.324-.337 2.158-.551ZM211.165 1.727l-.86.589-.129-.143.662-.511-.301-.7c.254.127.559.18.86.15h2.236l.051.168a3.987 3.987 0 0 1-.653.162h-1.608c-.086 0-.163.181-.249.285h-.009ZM233.52 1.215c.342.042.69.042 1.032 0 .346-.128.667-.291.955-.485.054.17.054.349.001.52-.054.17-.16.33-.311.464-.705.55-1.109-.279-1.72-.181l.043-.318ZM35.752 2.16l1.72-.18-.224.783h-1.72l.258-.648-.034.045ZM55.65 1.338c1.118-.07 2.099-.136 3.148-.2l.086 1.294h-.276l-.042-.79c-.86-.362-1.944.408-2.915-.304ZM235.121.341c-.189-.343.275-.828 1.316-1.19l.146.543.378-.628.456.207L236.222.49V.167l-.121-.596c-.06.145-.15.283-.266.408a5.448 5.448 0 0 1-.714.362ZM92.391 3.32l-.765.051A8.663 8.663 0 0 1 91 2.678c-.405-.556-.637-.369-.792.169-.343-.55-.24-.719.379-.77a5.87 5.87 0 0 0 1.057-.35l-.567.647 1.316.945ZM227.15.73l1.213.058V.93l-.619.136 1.246.564-.06.174c.129-.064.25-.136.37-.2l.146.181-.765.583c0-1.295-1.066-.311-1.47-.758l.464-.57-.568-.2.043-.11ZM45.958.05l-1.48.867C44.256.723 44.007.2 43.465.691c-.051-.09-.094-.13-.086-.162.138-.57 1.075.045 1.135-.647l1.436.174.009-.006ZM222.757 3.274c-.396.117-.731.265-.963-.194a1.5 1.5 0 0 0-.327-.35c-.533-.53-.602-.524-.86.084-.309-.589-.232-.686.396-.738.318 0 .627-.2 1.066-.24l-.507.558 1.195.88ZM83.198 1.358c-.765.052-1.53.103-2.278.149l-1.05.854-.172-.194c.654-.2.628-1.146 1.626-1.016.618.038 1.239.038 1.857 0l.017.207ZM129.134-.494l-.817 1.1c.206 0 .481.072.791.124-.421.764-.421.764-1.333.647.353-.149.611-.252.86-.362V.853l-.8-.11.422-.758.249.136c-.112-.447-.12-.816.628-.615ZM2.466 34.803c-.628-.085-1.067-.188-.998-.81 0-.084-.077-.175-.112-.265l-.086-.24c.103-.013.208-.013.31 0 .25.084.49.194.86.35l.026.965ZM33.68 2.64l.567.57c-.464.647-.714-.5-1.23-.311l.241.394-.12.15-.86-.519.034-.116h-.645L31.6 2.69h2.09l-.01-.051ZM52.667-.591a3.384 3.384 0 0 0-1.197-.096c-.404.039-.789.15-1.125.323L50.2-.572c.206-.22.361-.543.62-.647.357-.081.742-.06 1.08.06.338.119.605.328.75.587l.018-.019ZM184.948 1.196v.11c1.152-.084 1.307.09 1.083 1.152v-.026a4.765 4.765 0 0 0-.344-.692.601.601 0 0 0-.188-.114.754.754 0 0 0-.233-.048 5.545 5.545 0 0 0-.86 0c-.25 0-.499.045-.86.078l.267-.706c.232.33.533.401 1.143.259l-.008-.013ZM297.513 30.49c.181-.038.37-.07.723-.148-.723-.304-.981-.078-1.204.414l-.112-.705c.533-.04 1.015-.078 1.333-.098l.438-.46.267.195c-.291.36-.607.707-.946 1.042-.077.072-.37-.051-.559-.084l.06-.155ZM255.671 1.992c.164-.518.293-1.068 1.17-.854l.241.582.154-.582h.224l-.069 1.01a7.338 7.338 0 0 0-.714-.596c-.086-.045-.378.045-.378.052.086.602-.378.323-.653.356l.025.032ZM68.711 2.743c.198-.136.379-.336.602-.395.262-.034.53-.034.791 0l-.61.803.12.097-.86.24-.172-.712a.64.64 0 0 0 .13-.033ZM174.285 1.183l.361-.777.327-.647.172.388c.232-.485.722-.524 1.118-.065a5.339 5.339 0 0 0-.534.24c-.146.078-.258.207-.404.291-.326.214-.688.389-1.04.57ZM278.235 10.072c-.223.97-.636 1.295-1.315.932l.455-.207-.619-.55c.619-.046 1.032-.117 1.479-.175ZM107.877-.3c.284 0 .568.052.86.085v.174a9.69 9.69 0 0 0-.971 0 1.49 1.49 0 0 0-.611.195c-.216.15-.417.313-.602.485l-.18-.181c.18-.207.344-.421.533-.648.189-.226.369-.362.653-.647l.318.537ZM199.333 1.351l.361.648c-.163.064-.344.149-.421.18l-1.256-.705c.362-.194.86-.427 1.264-.647.327.168-.662.434.061.576l-.009-.052ZM125.307 2.018c.094-.557.215-1.1 1.118-.887l.206.648.198-.641h.215l-.189.951-.551-.505c-.068-.058-.154-.136-.215-.123-.06.013-.206.11-.197.156.094.556-.379.291-.611.362l.026.04ZM3.826 23.15c.293.375.585.582.585.796 0 .213-.284.44-.438.647a1.87 1.87 0 0 1-.534-.647c-.043-.15.19-.415.387-.797ZM295.192 15.834c-.903-.997-1.977-.175-2.932-.609a64.28 64.28 0 0 0 1.075-.414 5.19 5.19 0 0 0 1.075.246c.533.006.731.194.782.777ZM204.442-.034c-1.083.11-1.083.11-.937 1.126v.428h-.344v-.421c0-.136-.06-.46-.094-.693l-.061-.647c.439-.04.86-.072 1.316-.085.041.095.07.193.086.292h.034ZM.18 22.256c-.327-.861-.138-1.055.86-1.004.317.473.317.473-.86 1.004ZM79.15.49c-.637-.045-1.248-.058-1.325-.725l.68-.175c.257.324.55.648.808 1.043.051.077-.07.252-.112.375l-.258-.071.206-.447ZM1.41 24.373l-.198.582h-.146a4.754 4.754 0 0 1 0-.99c.043-.181.284-.317.439-.473.163.169.447.33.464.512.017.181-.275.33-.421.498l-.138-.13ZM88.574 2.497l-.576.453-.164-.207c.284-.226.232-.952.998-.466.086.052.326-.123.498-.155a.807.807 0 0 1 .262 0 .715.715 0 0 1 .237.084c-.447.052-.765.964-1.255.291ZM199.988 3.28c-.249.072-.49.15-.748.22-.567-.55.319-.712.43-1.093 0-.078.542-.046.86-.065l-.653.803.111.136ZM134.699 2.374l.954-1.295h1.006c0 .46-1.169-.051-.593.79-.258 0-.396-.052-.542-.071l-.069.55-.756.026Z"/><path d="M186.023 2.432c.473-.35.911-.796 1.617-.453l-.052.88-.86-.427h-.705ZM158.102 2.924h-.198c-.18-.278-.344-.563-.541-.893.559 0 1.203.058 1.874.084-.112.693-.713.117-1.023.37l.344.245-.473.227.017-.033ZM-1.474 24.638l-.447-1.126c.594.291 1.015.498 1.428.718 0 0-.086.285-.18.318-.262.053-.53.083-.8.09ZM180.701-.41c.189-.86.636-1.12 1.229-.75a.636.636 0 0 1 .095.453c-.404.116-.825.194-1.324.297ZM193.477.49h-.722l.267-.414c-.499-.052-.946-.09-1.393-.136l-.043-.13c.24-.07.473-.148.722-.207.181-.055.373-.086.568-.09.077.003.153.02.22.049s.124.07.166.119c.095.266.167.536.215.81ZM211.113 1.74c.283.039.576.084.859.13v.472c.233-.065.43-.123.654-.181a1.178 1.178 0 0 1-.42.333c-.173.085-.37.138-.575.155a1.716 1.716 0 0 1-.605-.057 1.398 1.398 0 0 1-.507-.257h1.505l-.859-.608-.052.013ZM265.942 1.785l-.052.57h-.791l1.178-1.463.181.99-.516-.097ZM219.017 2.523l-.645.434-.164-.175.37-.583c.315.013.631.013.946 0 .222-.052.458-.065.688-.038-.447.271-.757.841-1.195.362ZM67.972-.235h.989l.541-1.068c.06.706-.498 1.605-1.023 1.625-.19 0-.395-.246-.593-.382l.086-.175ZM304.255 26.73l-.146-.713-.533.557-.163-.097.24-.861c.456.097.86.188 1.239.272l-.637.841ZM130.871 1.953h-1.307a.58.58 0 0 1 .213-.22.842.842 0 0 1 .327-.115.954.954 0 0 1 .361.019c.116.03.22.08.303.148.12.084.103.324.155.486-.422 0-.43.938-1.161.479l1.109-.797ZM197.839-.157c.473-.058.971-.117 1.556-.181l.327-.467.189.136c-.301.33-.593.648-.92.978-.052.052-.267 0-.378-.045a8.687 8.687 0 0 1-.774-.421ZM16.752 10.81l-.67-.44 1.513-.305c-.26.388-.546.764-.86 1.127-.078.077-.387-.033-.594-.059v-.168l.61-.155ZM247.342 2.743c.533.045.859.078 1.229.104v.2h-2.081v-.194l.697-.194-.069-.363h.86l-.636.447ZM143.59-.643v.57c.396 0 .757.052 1.118.078v.207c-.464.039-.929.071-1.298.103l-.706-.958h.886Z"/><path d="m249.716 2.892-.783.647-.172-1.048-.653.155-.086-.09c.206-.13.481-.408.593-.357a7.36 7.36 0 0 1 1.101.693ZM209.257 3.028c-.576.052-1.152.104-1.72.162l-.129-.233 1.015-.648.12.13-.378.473 1.092-.065v.181ZM274.158 3.934l-.576.855c.318-.039.619-.071 1.075-.123-.112.188-.18.401-.249.401a2.55 2.55 0 0 1-.972-.11c-.086-.032-.069-.46 0-.647.069-.188.344-.298.525-.44l.197.064ZM236.712.49l1.221-1.295c.051.065.232.188.232.305-.098.25-.286.474-.542.649a2.171 2.171 0 0 1-.911.341ZM23.112 6.317l.327.35.584-.143.095.609c-.903.22-.903.22-1.006-.816ZM54.54 1.17c0 .058.095.155.146.155.267 0 .68-.11.774 0 .155.278.248.574.275.874-.103 0-.206.052-.318.072-.06-.195-.06-.505-.19-.564a5.32 5.32 0 0 0-1.143-.2l.473-.324-.017-.013ZM273.654.315l.051-.647c-.189-.045-.344-.084-.507-.117v-.155l.739-.045.052.589 1.006.065v.194c-.396.032-.834.071-1.341.116ZM242.303 3.022l.233-.693h.154v.867l-1.719-.097c.025-.388.025-.388 1.332-.077ZM299.079 39.82l1.514.472c-1.041.505-1.436.402-1.514-.472ZM209.843.58a5.197 5.197 0 0 1-.791-.142c-.224-.077-.516-.187-.594-.362-.077-.175.164-.37.284-.596l1.092 1.1h.009ZM73.707.309c.98-.777 1.29-.796 1.72-.13l-.13.162-.644-.408-.138.57C74.257.432 74 .373 73.707.31ZM293.791 42.571l.069-.608 1.074 1.631c-.386-.103-.627-.162-.859-.226l-.301-.797h.017ZM159.772 1.662c-.455.045-.911.097-1.375.142v-.136l1.35-.88v.893l.025-.019ZM160.313 1.597c.215-.77.456-.854 1.135-.401.103.053.213.098.327.136l.077.498a11.414 11.414 0 0 0-.481-.388l-.12.304c-.112-.11-.069-.188-.086-.259-.018-.071-.095-.123-.061-.077-.318.077-.559.135-.791.187ZM290.359 13.192c.352.35.645.648.954.971-.155 0-.326-.045-.498-.07l-.095.142.765.414c-.335 0-.576.052-.86.078l-.266-1.535ZM150.115-.656c.129 0 .378.033.679.052l-.722.848-.663-.058.706-.842Z"/><path d="m208.766 2.284.723.051.051-.194c-.266-.045-.533-.084-.8-.13l-.051-.122c.189 0 .43-.13.559-.059.258.174.491.367.696.577l-.163.24-1.041-.105.026-.258ZM118.111 3.041h-2.029V2.86l.653-.207v-.357c.413.37.8.72 1.496.447l-.12.298ZM295.123 42.384c.611.045 1.213.097 1.952.155-.464.46-1.47-.369-1.462.757a.956.956 0 0 0-.103-.42 1.477 1.477 0 0 0-.395-.305l.008-.187ZM17.909 8.505c-.482-.265-.912-.285-1.256.259v-.647h2.202v.226c-.198 0-.396.033-.585.065a1.766 1.766 0 0 0-.361.116v-.019ZM285.725 12.752a71.297 71.297 0 0 1-1.153-.162c-.129 0-.258-.052-.387-.078v-.22h1.574c.077 0 .155.182.232.279-.103.052-.206.103-.309.149l.043.032ZM112.693-.895c0 .103.077.278 0 .304-.413.246-.86.473-1.264.706l-.155-.188 1.23-.965.189.143ZM165.844-.157h-.43l.705-1.12.292.136c-.748.116.559.984-.567.984ZM68.711 2.743a.572.572 0 0 1-.129.058l-.49-.433.576-.117-.215-.55h.465l.335.149-.542.893ZM112.28 3.21c-.61-.046-1.187-.091-1.72-.13.086-.304.473-.343 1.342-.058l.266-.693.198.045-.086.835ZM72.21-.87 70.903.49c.103-.382.112-.725.223-.757.43-.123.207-1.107 1.084-.602ZM48.908-.455v-.732c.31-.038.782-.103 1.298-.168.147.68-.507.181-.8.343l.121.37-.619.187ZM63.218.49c-.31 0-.558 0-.756.04V-.54c.447.11.86.221 1.281.325l-.052.18c-.129 0-.266-.051-.404-.07l-.481-.059.292.408.12.246ZM119.299-1.09l-.138-.323.172-.039c.069.233.258.57.163.647a7.05 7.05 0 0 1-1.109.784l-.086-.136.998-.932ZM292.406 14.17l.335-.686.396.44.111-.563h.121l.206.809h-1.169ZM148.868 2.2l-.507.342v.311l-.86-.686v-.181l.619.116v.2c.215-.11.473-.711.748-.103ZM286.681 35.806h-1.961v-.24h1.961v.24ZM256.55.328l-.103-.647 1.427-.79v.071L256.55.328ZM78.35 2.316h.732v-.207c-.258 0-.508-.059-.766-.09v-.124c.18 0 .421-.149.533-.078.256.185.49.386.697.602l-.172.22c-.353 0-.697-.038-1.05-.064l.027-.26ZM286.672 16.352c.404-.11.799-.233 1.203-.318.061 0 .164.123.241.188-.086.065-.172.162-.284.188-.111.026-.215-.032-.447-.084l.336.466c-.293 0-.516 0-.792-.046.293-.356.129-.453-.249-.414l-.008.02ZM274.254-1.057h1.358l-.206.725h-.86l.748-.337v-.136l-1.049-.116.009-.136ZM249.715-1.077l-.155-.336.181-.039c.091.198.157.401.197.609-.438.207-.507.951-1.203.738l.627-1.218.353.246ZM153.555-.26c-.301-.04-.602-.078-.903-.11l.043-.137c-.224.046-.447.09-.86.169.791-1.023 1.247-.246 1.771-.091l-.051.168ZM257.032 3.08c-.654-.175-.214-.648-.223-.978l.163.246c.25-.071.508-.142.766-.22l.06.156-.697.284.551.318-.637.18.017.014ZM299.913 28.665c-.456.518-.912-.09-1.367-.084-.078 0-.155-.44-.215-.647l1.582.731ZM2.399 22.884l.12-.978c.255.096.499.207.731.33.03.055.046.113.046.172a.354.354 0 0 1-.046.172c-.271.12-.556.222-.851.304ZM75.073 2.607h-1.281l.043-.867 1.238.867ZM160.502.704a12.332 12.332 0 0 0-.507-.363 2.206 2.206 0 0 0-.267-.155 1.02 1.02 0 0 1-.103.233c-.111.11-.232.213-.361.31l.129-1.022 1.264.731-.155.266ZM60.687 1.351c.321-.028.64-.069.955-.123.128 0 .232-.155.36-.246l.216.492c-.542.117-1.075.648-1.514-.136l-.017.013ZM80.19 2.29h2.166c-.258.136-.464.337-.67.343a17.131 17.131 0 0 1-1.522-.09l.025-.253Z"/><path d="M78.83 3.08c-.567.039-1.134.078-1.719.11l.258-.648.74-.148-.404.55c.43-.045.748-.078 1.066-.104l.06.24ZM285.7 12.733l.859.284-.361.7-.232-.55c0 .375 0 .647-.55.478.327-.24-.301-.77.327-.912h-.043ZM35.556 3.507l-.688-.259v-.116c.602 0 1.212-.078 1.814-.098l.13.305c-.456.065-.86.116-1.239.168h-.017ZM290.118 13.503l-.155.647h-1.109l1.101-.822.163.175ZM151.38.147c-.422.427-.86.79-1.582.414.524-.22 1.006-.427 1.496-.647l.086.233ZM202.204-.021c-.249.071-.739-.285-.636.414l-.215-.149c.15-.184.283-.377.396-.576.052-.185.08-.374.086-.563.214 0 .455-.058.601-.078l-.257.978.025-.026ZM226.739.82l.24.907a84.41 84.41 0 0 1-1.169-.136l.929-.77ZM264.367-.52h1.917v.188h-1.9l-.017-.188ZM133.891-.338a2.11 2.11 0 0 1 1.04-.264c.376 0 .741.092 1.041.264h-2.081ZM287.007 34.893l-.455-.828h1.453v.123c-.275.064-.559.135-.86.2l-.138.505ZM268.959-.546h1.72l-.155.363c-.49-.272-1.23.375-1.591-.37l.026.007ZM204.182 49.55c-.551-.051-.68-.278-.301-.738.129.305.86-.103.688.596l-.387.142ZM184.872 48.741l.637-.11-.43.81-.155-.053-.077-.485c-.172.097-.31.181-.525.298.017-.428.086-.667.55-.46ZM303.076 25.972l-.766-.045-.068-.156c.404-.097.361-.86 1.126-.498l-.292.699ZM187.64 2.005c.387.143 1.075-.278 1.144.518-.679.33-.989.039-1.144-.518ZM291.272 35.838h-2.098c.138-.194.215-.388.275-.388.585 0 1.17.103 1.72.168.052 0 .06.078.103.22ZM125.823.73l-.86.647a1.8 1.8 0 0 1 .069-.777c.12-.194.43-.285.705-.446l.086.576Z"/><path d="M268.966-.552c-.318.103-.628.207-.938.304l-.111-.226.636-.279c-.542-.09-.92-.149-1.496-.233.86-.324 1.358.071 1.857.447l.052-.013ZM97.731 2.102l-.86 1.03c-.36-.292-.068-.83.86-1.03ZM276.325 3.358l-1.969.078v-.188l1.926-.168.043.278ZM2.706 19.912c-.327-.045-.817 0-.946-.168-.267-.337 0-.57.43-.453.206.058.36.265.541.408l-.025.213ZM288.475 12.435c-.541.071-1.092.136-1.633.207l-.052-.259c.542-.084 1.084-.175 1.625-.259l.06.31ZM126.152.49l-.111-.809 1.04-.576-.929 1.385ZM108.47.445l1.281-.81.172.26c-.439.252-.86.511-1.307.77l-.146-.22ZM180.675-1.148a29.37 29.37 0 0 1-.912.15l.207.336c-.233.071-.465.136-.8.24l.447-.745c.301-.052.645-.11.998-.162l.06.181ZM127.869 1.675h1.608l-.687.647-.921-.647ZM258.717.49l.757.227c-.379.757-.379.757-1.135.615-.078-.35 1.083.039.378-.842ZM192.679 1.306c-.903.57-1.204.563-1.548 0h1.548ZM59.46.438h-1.84c.114-.098.256-.178.414-.232a1.568 1.568 0 0 1 1.011 0c.159.054.3.134.415.232ZM135.729 49.42h-1.719v-.168l1.719-.135v.304ZM172.042.25l.069-.647 1.384.732v.149h-.568a.378.378 0 0 0-.111-.203.58.58 0 0 0-.232-.134.739.739 0 0 0-.559.052l.017.052ZM227.17 3.125c-.534-.647.636-.647.541-1.107l.284.084a3.16 3.16 0 0 1-.249.576 3.62 3.62 0 0 1-.576.447ZM295.511 19.265l-.25.77h-1.298v-.181c.714.168 1.264.065 1.427-.719l.121.13ZM60.12.782l.18-1.03c.474.039.86.447.568.648-.228.148-.48.277-.748.382ZM271.263 3.08l.094.712h.568l-.301.57-.731-.447.421-.874-.051.039ZM191.39.25l-.792.648.147-1.126.172-.117.473.596ZM176.264.115l.507-.37c.215.065.499.15.783.24l-1.66.648.344-.538.026.02ZM258.665 2.847c-.301.032-.516.052-.731.077 0-.543.344-.77.86-.647a1.265 1.265 0 0 0-.181.272c.001.1.018.2.052.298ZM258.915.056l-.086-.537.602-.084.103.13-.86.893-.241-.285.482-.117ZM187.846.49c.12-.108.268-.196.435-.26a1.796 1.796 0 0 1 1.086-.05c.176.049.337.123.474.22-.714.025-1.273.051-1.995.09ZM127.681.16c-.559.278-.981.48-1.402.686V.788c.327-.155.653-.31.98-.473l-.361-.343.783.188ZM195.423 49.382c.293 0 .559-.058.86-.09v.077l-.55.2.731.648c-.37-.045-.594-.078-.791-.103l-.25-.732ZM155.462 3.436l-.232-.648-.249.525h-.112v-.648c.164 0 .361-.064.611-.11l.232.83-.25.05ZM199.342 1.364c.593 0 1.187-.058 1.78-.084v.227c-.593.064-1.195.246-1.78-.15-.009-.006 0 .007 0 .007ZM289.061 12.96l-.988.776-.112-.136c.739-.86.739-.86 1.1-.64ZM182.651.523l-1.505.155c.714-.563 1.11-.57 1.505-.155ZM128.36 2.853c-.206.04-.275.065-.344.071a1.142 1.142 0 0 1-.61-.148l.705-.648.249.725ZM229.154.49l.929-.913c.284.473-.06.777-.929.913ZM212.697.36h-1.668V.2h1.72l-.052.162ZM257.411-.021l.662.2-1.376.648-.103-.168.817-.68ZM109.313-1.374v.932l-.997-.09.997-.842ZM289.776 17.854l-1.178.647c-.198-.609.017-.745 1.178-.648ZM255.37 1.338c0-.265-.051-.608.095-.75.146-.143.524 0 .8 0v.161l-.895.59ZM209.834.58l-.001.868-.86.15-.086-.143c.215-.117.422-.24.654-.363L209.3.84l.55-.26h-.016ZM238.75-.565l.929-.745v.88c-.293-.044-.577-.083-.929-.135ZM204.425-.015l.679-.31-.163.828c-.292-.065-.533-.116-.782-.175l-.181-.187.464-.175-.017.02ZM284.419 11.82l-.637.822-.911-.252 1.548-.57Z"/><path d="m176.291.102-.344.537 1.659-.647-.24 1.43-.611-.4-1.212.31.223-.48-.094-.077-1.084.855c.447.023.884.116 1.281.272.215.136.207.563.336.964.129-.22.258-.414.369-.589l.714.576c-.791.227-.911 1.295-1.883 1.23-.972-.064-1.789.428-2.717-.142.559 0 1.057-.058 1.556-.084v-.182a3.589 3.589 0 0 1-.378 0c-.92-.045-1.84-.123-2.76-.129-.293 0-.86-.071-.671.492-.621.07-1.247.112-1.875.13-.206 0-.421-.22-.619-.35a2.79 2.79 0 0 1-.326-.253l-.095.538c-.112-.097-.206-.24-.344-.285a11.875 11.875 0 0 0-.954-.24v-.162c.219.03.443.03.662 0 .129-.038.206-.226.283-.317h-1.994v.207c.249.04.498.085.748.123v.227c-.387-.045-.783-.09-1.17-.142l.731-1.761.593.738a5.56 5.56 0 0 0-.464.278h2.107l.172-.647-1.918-.136v-.162h2.391l-.439.505.129.11.929-1.204.206.13-.344.394.972-.084v.42l-.748-.187-1.049 1.01 1.006-.298c.327.097.679.2 1.032.31l.163-.569h1.264l.052.447c.24 0 .498.039.808.065l-.206-.466.128-.15.86.531c.164-.135.422-.35.671-.57l.163.104-.163.55.628-.22c-.224-.116.146-.563-.404-.543-.233 0-.482-.233-.723-.356l.568-.48.06.44h.722l-.258-.465c.353-.182.714-.356 1.067-.55.146-.085.258-.214.404-.292.135-.108.278-.21.43-.304Zm-.86 3.56.542-.407a2.796 2.796 0 0 0-.233-.842 1.492 1.492 0 0 0-.653-.505c-.103-.045-.464.13-.464.2 0 .396-.422.881.249 1.166.212.114.408.244.585.388h-.026Zm-4.893-.744a6.673 6.673 0 0 1-1.066.11c-.593-.039-.937.09-.8.783.396 0 .8.046 1.247.078 0-.479.155-.783.774-.647l-.155-.324ZM42.879 3.643l-2.58-.142v-.182h.98l.043-.479c.439-.039.86-.07 1.299-.116l.645-.544.154.09-.111.467c.86.278.318-.46.541-.797h-4.058v-.259h3.388v-.543h.163v.595h1.333c.86-.032 1.066.421 1.152 1.133l.292-.511.766.298c-.368.318-.71.653-1.024 1.003-.653.816-1.72.188-2.502.647-.12.072-.421-.116-.636-.18l.137-.467c.319.039.8.214.912.09.585-.647.55-.647 1.204 0l.679-.53c-.421-.415-.138-1.353-1.075-1.224-.258 0-.421.583-.628.9.766-.227 1.024-.168 1.11.272-.533 0-1.067-.058-1.72-.09l.232.647-.696-.078ZM262.234 37.01c.507-.116.714-.24.138-.647.688-.162 1.384.077 1.935-.162l-.086-.285-1.092.065.782-.492c.516.712.628-.136 1.006-.292l.043.687h2.219v.136h-.981c0 .453-.352.997.456 1.23-.069.045-.12.064-.146.097-.929 1.087-2.176.803-3.388.647-.146 0-.301.071-.456.117v-.169c.387-.09.766-.174 1.153-.258v-.143c-.551 0-1.101-.052-1.823-.09.593-.24 1.014-.415 1.496-.648l-.181.363c.413.038.998-.052.705.647.447-.078.8-.058.791-.583 0-.194.405-.388.723-.647a4.987 4.987 0 0 0-1.713-.075 4.521 4.521 0 0 0-1.581.502ZM288.039 29.96l.163-.79c-.146 0-.318 0-.43.065a2.545 2.545 0 0 0-.456.498l.293-.757h-1.497l-.266-.796.731-.499.146.071-.292.823h.576l.086-.603c.284.525.438 1.023 1.186.648.19-.09.542.123.946.226l-.653.803-.215-.09c-.008.279.015.558.069.835.12.427.154.75-.594.686l.086.22c.336.045.671.09 1.221.168l-.43-.57c.214-.011.423-.058.611-.135.112-.072.12-.285.198-.486.301.35.559.803 1.074.227.061-.065.551.181.86.285l-.043-.208c.267-.136.542-.265.809-.395l.129.137c-.138.18-1.032.129-.052.647l-2.064.175c0 .291.31.867-.481.498-.078 0-.25.123-.413.214.215.103.344.168.602.304l-1.273.188.654-.647c-.55 0-1.041-.065-1.78-.11.275-.506.499-.868.662-1.257.017-.064-.112-.22-.163-.375ZM284.04 33.508c-.705 0-1.247.051-1.866.077v-.647c.43.078.773.136 1.126.2l.06-.582.963.855.172-.395c.551-.162 1.342.233 1.772-.499l.352.531c.576 0 1.084-.045 1.548-.065l-.267.77a4.539 4.539 0 0 0-1.444.04c-.336.123-.525.582-.86.88 0-.298-.344-.725.421-.712v-.2a5.887 5.887 0 0 0-1.436 0c-.477.19-.917.43-1.307.711l-.146-.13.912-.834ZM159.865 2.93c.121 0 .318 0 .361-.057.147-.246.938.323.671-.44 0 0 .284-.104.525-.188l-.207.44c.923.052 1.838.165 2.735.337.326.077.524.589.774.906l-.198.149-.508-.499c-1.1.318-1.246.272-1.453-.524-.292.045-.584.097-.86.142v.175l.542.065c-.094.731-.782-.175-.937.35.155.051.318.116.49.174l-.086.188c-.387-.175-.765-.35-1.144-.53l-.068.083.301.37c-.645.174-1.282.349-1.909.53l-.086-.123c.34-.149.662-.32.963-.511.129-.097.137-.324.24-.576l.585-.123-.748-.357.017.02ZM180.366 2.665l-.697-.984h.955l-.43.492c.318 0 .602.04.86.052.111.648.283 1.327-.473 1.742-.146.084-.387 0-.602-.136.112-.046.232-.084.352-.123-.61-.343-.61-.343-.645.647-.318-.207-.438-.181-1.41.207a1.26 1.26 0 0 0 .232-.284c.04-.121.058-.245.052-.37.267 0 .499-.051.722-.077v-.143l-1.152-.11c.267-.647.748-.039 1.135-.22l.086-.582 1.015-.11ZM292.854 25.26l1.118.408-.722.11c.567.77 1.074.977 1.659.524a3.456 3.456 0 0 1-.249.686c-.086.143-.275.227-.404.33l-.293-.647-.799.447.601.142c-.232.725-.73.822-2.313.395h.86l.602-.718-.473-.784-.223 1.088-.757-.557 1.47-.88-.051-.59-.026.046ZM47.714 3.404h1.135l.128-.596c.276-.052.594-.104.946-.168l-.602-.933c.327 0 .55 0 .912-.051l-.473.55h.86c0 .595.49 1.295-.516 1.631l-.353-.524c.276-.058.49-.104.731-.162-.447-.59-.86.071-1.178 0v1.295c-.602-.745-.937.194-1.444.188l-.12-.162 1.04-.81c-.301 0-.697-.051-1.084-.084l.018-.174ZM9.785 29.326l-.765-.506-.086-.388c-.129.052-.258.104-.43.181l.24-.802h.86l.293-.583.18.097-.352.447c.404.194.774.35 1.127.537.129.065.335.214.318.278a.832.832 0 0 1-.353.389c-.275.194-.576.356-.86.55l-.189-.2h.017ZM11.35 32.64c-.86.298-.963.097-.653-1.023.464-.123 1.092.486 1.522-.265-.353 0-.628-.039-.86-.058v-.246c.404-.052.808-.11 1.324-.188l-.473-.168c.442-.024.881.067 1.243.26.363.192.625.473.743.795l-.155.11-.49-.563c-.292.045-.662.11-1.04.168l.129.058-1.256 1.017-.36-.648-.25.648c.172.064.378.084.576.103ZM183.316 4.103h-1.17l.577-.343c-.181-.596-1.239.362-1.221-.57h.705v-.168l-.611-.188v-.162h2.054l-.334 1.43ZM280.532 14.824l-.163.446c.198 0 .378.033.481.046l.335 1.398.671.272-.086.123c-.404 0-.817.058-1.221.084l-.223.615-.241-.078c.146-.315.315-.624.507-.925a.468.468 0 0 0 .044-.52.63.63 0 0 0-.205-.22.896.896 0 0 0-.312-.128c.43-.544-.051-.783-.585-1.113h.998ZM294.477 39.535h1.591l.095.155-.963.732v-.609l-.138-.058-.611.822c.86 0 1.608-.304 2.228.117v.181l-.611-.11v.427h-.103l-.189-.479c-.594-.039-1.514.576-1.591-.647.077-.136.86.155.292-.531ZM10.051 13.438l.86.428-1.505 1.819c-.344-.447-.627-.648-.12-1.056.326-.369.583-.77.765-1.19ZM283.017 42.112c0 .097-.069.278-.103.278a17.13 17.13 0 0 1-2.305.058c-.18 0-.327-.485-.49-.75l.181-.072.18.531h.981l-.903-.434c.507-1.178.92.15 1.401.046l-.516.362h1.591l-.017-.02ZM180.806.917c-.043.117-.086.344-.138.344h-2.725c.258-.33 1.092-.085.722-.693h1.548l.61.343-.017.006ZM52.486 3.138l-1.255-.304v-.162h2.002l-.36 1.43h-.86l.473-.964ZM279.154 28.328l-.086-.336-1.307.44-.06-.142.533-.246c-.326-.065-.541-.117-.748-.162v-.117l.989.15c.259-.156.573-.25.902-.275.33-.024.661.024.955.138.06.055.103.118.128.186.025.068.032.14.019.21a.574.574 0 0 1-.19.15.755.755 0 0 1-.258.076 5.973 5.973 0 0 1-.877-.072ZM50.439.937c-.07.11-.138.317-.207.317h-1.9a1.237 1.237 0 0 1-.705-.11c.387 0 .774-.065 1.187-.103l-.628-.357c.782.072 1.6-.246 2.27.305l-.017-.052Z"/><path d="M41.643.244c.215 0 .43-.045.86-.09l-.8 1.366c-.524-.318-.817-.92-1.487-.583 0 0-.164-.181-.147-.253a.287.287 0 0 1 .106-.107.415.415 0 0 1 .16-.054c.164 0 .328.09.491.103.361 0 .757.078.86-.401l-.043.02ZM244.982 42.779c-.25 0-.465-.059-.749-.091.37-.22.628-.376.86-.538v-.226c.25.142.654.259.697.447.043.187.275.764-.387.88-.146 0-.232.337-.396.609l-.025-1.081ZM160.296 1.578c.232-.052.473-.11.791-.188 0-.045.043 0 .06.078.017.077 0 .149.086.259l.12-.305c.129.098.25.195.482.389l-.078-.499c.456.266.912.505 1.402.059-.086.136-.155.362-.266.388-.611.13-1.239.2-1.858.31-.164.043-.314.111-.438.202-.241.142-.465.31-.688.466l-.146-.207.67-.33-.137-.622ZM263.359 42.338c.206 0 .344-.058.516-.09l-.206-.505c.275-.046.49-.078.696-.117v-.22l-1.135.058v-.188c.464 0 .937-.045 1.479-.07 0 .362 0 .647.671.388v.252l-.671.952-.163-.084c.058-.126.127-.25.206-.37.095-.09.202-.172.318-.245a3.169 3.169 0 0 0-.619-.169c-.103 0-.275.143-.309.246-.138.395-.293.447-.783.162ZM292.243 39.218c-.137 0-.275.039-.412.052-.362.032-.86-.305-.929.388-.456 0-.912-.045-1.462-.078l.404-.705c.748.46 1.6.032 2.399.343ZM257.133 39.826l1.436-1.385.129.084c-.112.207-.206.427-.327.648-.094.14-.2.277-.318.407l.404.182c-.12.335-.27.663-.447.984-.086.149-.335.207-.55.33l.447-1.295c-.361 0-.567.02-.774.045ZM268.908 36.33c-.112.648-.112.648-.508.732l.189-.57c-.49.065-.86.117-1.307.169l-.06-.182.516-.323-.352-.79.111-.097c.148.208.339.396.568.556.249.117.567.097.86.208l-.86.155v.103c.249.014.516.026.843.04ZM284.254 38.94v1.12l.541-.525.155.149c-.103.375-.266.583-.8.453a8.626 8.626 0 0 0-1.298 0c-.181 0-.353-.175-.507-.291a.972.972 0 0 1 .103-.207l.37.271c.292.201.533.292.748-.116.19-.302.421-.588.688-.855ZM13.07 28.879c.997.188 2.054-.421 3.034.13v.245l-3.06-.136.026-.24ZM291.82 40.195h-2.648v-.213h1.315c.336 0 .731.188.86-.324 0-.084.456-.065.731 0l-.576.259.714.142-.568.823c-.266-.104-.464-.188-.799-.318.429-.064.722-.103 1.014-.142l-.043-.227ZM272.743 8.66h-.525a2.45 2.45 0 0 0 .258-.343c.301-.647.43.104.688.078.546-.015 1.093.007 1.634.065l-.37.524c-.464-.647-.997-.563-1.625.35l-.06-.674ZM287.401 30.607l-.584.078c.275.09.395.136.524.175v.213h-1.72v-.2c.138.039.267.078.404.11.052-.712.121-.77 1.376-.376ZM179.171 1.785l-.294.48h.688V2.4h-.567c-.189 0-.439.071-.662.078a5.868 5.868 0 0 1-.645-.071l.722-.447-.051-.123-.731.116c.068-.395.705-.485 1.54-.168ZM278.107 35.398c.483-.194.997-.34 1.53-.434.361 0 .757.188 1.135.298v.181l-2.579.136-.086-.18ZM254.968 41.97c.284 0 .405-.04.534-.053-.404-.841-.404-.841.404-1.1l-.593.46.817.356-.405.725c.344-.084.499-.117.663-.156v.492l-1.42-.725ZM280.376 39.075c-.155.059-.318.11-.473.169l.06.175c.25.084.499.174.86.297l-2.089.751-.069-.116c.223-.117.456-.22.662-.35a.76.76 0 0 0 .301-.252c.163-.292.301-.596.456-.887l.292.213ZM273.361 11.108l.059-.37h1.72c-.31.227-.568.538-.86.648-.293.11-.584-.181-.919-.278ZM16.208 21.712l-.266-.304c.06-.033.154-.123.206-.104.052.02.327.13.352.227.06.178.06.365 0 .544a3.917 3.917 0 0 1-.447.647c-.12-.162-.36-.343-.344-.492.018-.149.267-.278.5-.518ZM46.929 2.614l-.327-.35a6.41 6.41 0 0 0 .757-.078c.245-.063.478-.147.696-.252.197-.11.387-.226.568-.35l.146.175-.258.473c.232 0 .413.052.593.07v.13H47.79c-.68-.194-.68-.194-.912.182h.052ZM285.698 28.736c-.499.065-.86.583-1.487.292-.198-.09-.534.058-.8.07-.112 0-.215-.083-.327-.129.095-.051.181-.136.275-.155.257-.045.519-.071.783-.078.516-.006 1.04 0 1.556 0ZM273.937 37.683l-.963.7a.726.726 0 0 1 .125-.455c.094-.14.234-.26.407-.348a1.551 1.551 0 0 1 1.188-.065l-.627.162.472.291-.601.356-.001-.64ZM11.678 21.596c-.241 0-.594.038-1.058.07l.198-.705c.37 0 .713-.065 1.04-.09l-.18.725ZM288.149 27.13l.344.927.473.18-.155.28-1.058-.583.043-.764s.207-.02.353-.04ZM268.896 28.503l.86-.518.327.466c-.172.162-.49.44-.912.81l-.275-.758ZM267.479 29.293l-.421-.317-.344.537h-1.118c.31-.207.611-.434.938-.647.326-.214.876-.013.945.427ZM163.159 1.37l.861-.847c.054.164.12.326.197.485.112.181.25.35.473.648l-1.522-.298-.009.013ZM275.459 14.254l-.311.647-.283-.466-.172.058.12.55-.103.04-.353-.55-.163.07.103.402-.086.032-.37-.705c.542 0 1.024-.033 1.618-.078ZM163.323.801c-.206.24-.352.75-.86.116-.094-.116-.43-.064-.765-.103.249-.278 1.101-.071.628-.732l.997.719ZM47.284 3.481c-.267 0-.543.052-.981.097l1.092-.841a2.4 2.4 0 0 0 0 .427c.067.233.12.469.155.706a2.202 2.202 0 0 1-.172.608c-.241-.42-.24-.42-.094-.997ZM173.202 1.707c-.198.402-.456.292-.86.195a6.97 6.97 0 0 0-1.677.032s-.051-.065-.163-.214h2.691l.009-.013ZM39.768 2.957l-.146-.777c.227.091.47.157.722.194a3.04 3.04 0 0 0 .705-.149l.07.2-.62.182.206.427c-.335 0-.645-.058-.954-.09l.017.013ZM172.016.238a.74.74 0 0 1 .56-.052.576.576 0 0 1 .231.134c.06.059.099.129.112.203-.25.168-.559.278-.891.316-.331.038-.67.002-.975-.103.241-.298.972.2.963-.498ZM262.526 40.687l-1.771 1.12-.206-.647c.361 0 .713.045 1.272.09l-.585-.57 1.29.007ZM17.094 42.293l.73 1.224c-.163 0-.43.051-.722.084l-.266-1.133.258-.175ZM265.637 35.605l-.293-.647c.705-.168.705-.168.714.343l.998.065v.162l-1.419.077ZM259.508 38.687c.198 0 .413 0 .559.045l.172.725-.086.078-.447-.46-.808.564-.121-.078.731-.874ZM14.331 32.278l-.344.09-.12.926h-.284c0-.414.078-.829.155-1.236.204-.005.409.006.61.032l-.017.188ZM261.899 37.334l-.258.816h-.705v-.117l.774-.408a16.655 16.655 0 0 1-.645-.175v-.116h.834ZM273.179 17.2a6.69 6.69 0 0 0-1.376 0c-.258.064-.447.35-.731.479.662-.829 1.144-.939 2.107-.48ZM269.636 39.108c.353 0 .714.052 1.127.084v.731c-.456-.245-.86-.453-1.196-.647l.069-.168ZM261.546 35.838c-.284.816-.937.861-1.72.44.31 0 .619.04.998.059l.214-.499h.508ZM275.431 12.882h-1.083V12.7l1.608-.103-.387.718h-.129l-.009-.433ZM275.914 16.08c-.748.563-.722-.55-1.221-.648.181 0 .422-.065.542 0 .253.2.48.416.679.648ZM264.944 40.13c.567-.194 1.109-.368 1.651-.55-.516.266-.774 1.27-1.651.55ZM283.516 28.328l1.556-1.035c.06.595-.663.731-1.024 1.094-.068.071-.326-.02-.532-.059ZM277.376 33.423c.232-.135.387-.213.533-.31.116-.08.226-.163.328-.253.249.136.55.292.86.466-.448.013-.99.052-1.721.097ZM289.035 27.202l.129-.453.395-.058-.24 1.294-.465-.75.181-.033ZM257.856 41.089c.223.11.473.246.731.375l-.86.648.129-1.023ZM285.511 29.889h1.935v.116c-.645 0-1.29.072-1.926.104l-.009-.22ZM282.614 28.36h-1.229v-.75l1.229.75ZM137.457.924l-.086-.453h1.952l.154.809-2.037-.369.017.013ZM293.771 42.571l.31.836-1.075.194.765-1.03ZM271.357.756h1.867v.2c-.447.058-.898.09-1.35.097-.164 0-.319-.2-.473-.31l-.044.013ZM175.455 3.662a3.533 3.533 0 0 0-.559-.388c-.67-.285-.249-.77-.249-1.165 0-.071.361-.246.464-.201.279.117.506.292.654.505.122.272.2.555.232.842l-.542.407ZM170.564 2.918l.189.356c-.619-.168-.774.136-.774.647-.447-.032-.86-.051-1.247-.077-.137-.693.207-.822.8-.784a6.63 6.63 0 0 0 1.032-.142ZM42.881 3.643h.723l-.233-.647c.645 0 1.178.064 1.72.09-.086-.44-.344-.498-1.11-.272.207-.317.37-.867.629-.9.937-.129.653.81 1.075 1.224l-.68.531c-.653-.647-.619-.596-1.204 0-.111.123-.593-.052-.911-.09l-.009.064Z"/></g><defs><clipPath id="clip0_147_1126"><path fill="#fff" d="M305 0v50H0V0z"/></clipPath></defs></svg>